<?xml version="1.0" encoding="UTF-8" standalone="no"?>
<!DOCTYPE svg PUBLIC "-//W3C//DTD SVG 1.1//EN"
 "http://www.w3.org/Graphics/SVG/1.1/DTD/svg11.dtd">
<!-- Generated by graphviz version 2.43.0 (0)
 -->
<!-- Title: Sleak::ColliderComponent Pages: 1 -->
<!--zoomable 947 -->

<svg id="main" version="1.1" xmlns="http://www.w3.org/2000/svg" xmlns:xlink="http://www.w3.org/1999/xlink" xml:space="preserve">

<style type="text/css"><![CDATA[
.node, .edge {opacity: 0.7;}
.node.selected, .edge.selected {opacity: 1;}
.edge:hover path { stroke: red; }
.edge:hover polygon { stroke: red; fill: red; }
]]></style>

<defs>
  <circle id="rim" cx="0" cy="0" r="7"/>
  <circle id="rim2" cx="0" cy="0" r="3.5"/>
  <g id="zoomPlus">
    <use xlink:href="#rim" fill="#404040"><set attributeName="fill" to="#808080" begin="zoomplus.mouseover" end="zoomplus.mouseout"/></use>
    <path d="M-4,0h8M0,-4v8" fill="none" stroke="white" stroke-width="1.5" pointer-events="none"/>
  </g>
  <g id="zoomMin">
    <use xlink:href="#rim" fill="#404040"><set attributeName="fill" to="#808080" begin="zoomminus.mouseover" end="zoomminus.mouseout"/></use>
    <path d="M-4,0h8" fill="none" stroke="white" stroke-width="1.5" pointer-events="none"/>
  </g>
  <g id="arrowUp" transform="translate(30 24)">
    <use xlink:href="#rim"/>
    <path pointer-events="none" fill="none" stroke="white" stroke-width="1.5" d="M0,-3.0v7 M-2.5,-0.5L0,-3.0L2.5,-0.5"/>
  </g>
  <g id="arrowRight" transform="rotate(90) translate(36 -43)">
    <use xlink:href="#rim"/>
    <path pointer-events="none" fill="none" stroke="white" stroke-width="1.5" d="M0,-3.0v7 M-2.5,-0.5L0,-3.0L2.5,-0.5"/>
  </g>
  <g id="arrowDown" transform="rotate(180) translate(-30 -48)">
    <use xlink:href="#rim"/>
    <path pointer-events="none" fill="none" stroke="white" stroke-width="1.5" d="M0,-3.0v7 M-2.5,-0.5L0,-3.0L2.5,-0.5"/>
  </g>
  <g id="arrowLeft" transform="rotate(270) translate(-36 17)">
    <use xlink:href="#rim"/>
    <path pointer-events="none" fill="none" stroke="white" stroke-width="1.5" d="M0,-3.0v7 M-2.5,-0.5L0,-3.0L2.5,-0.5"/>
  </g>
  <g id="resetDef">
    <use xlink:href="#rim2" fill="#404040"><set attributeName="fill" to="#808080" begin="reset.mouseover" end="reset.mouseout"/></use>
  </g>
</defs>
<script type="application/ecmascript" xlink:href="svg.min.js"/>
<svg id="graph" class="graph" data-view-width="189" data-view-height="947" data-section-id="dynsection-0">
<g id="viewport">
<title>Sleak::ColliderComponent</title>
<!-- Node1 -->
<g id="Node000001" class="node">
<title>Node1</title>
<g id="a_Node000001"><a xlink:title=" ">
<polygon fill="#999999" stroke="transparent" points="181,-408 0,-408 0,0 181,0 181,-408"/>
<text text-anchor="start" x="27.5" y="-396" font-family="Helvetica,sans-Serif" font-size="10.00">Sleak::ColliderComponent</text>
<text text-anchor="start" x="89" y="-381" font-family="Helvetica,sans-Serif" font-size="10.00"> </text>
<text text-anchor="start" x="4.5" y="-366" font-family="Helvetica,sans-Serif" font-size="10.00">+</text>
<text text-anchor="start" x="17.5" y="-366" font-family="Helvetica,sans-Serif" font-size="10.00">ColliderComponent</text>
<text text-anchor="start" x="17.5" y="-355" font-family="Helvetica,sans-Serif" font-size="10.00">(GameObject *owner,</text>
<text text-anchor="start" x="17.5" y="-344" font-family="Helvetica,sans-Serif" font-size="10.00"> const MeshData &amp;meshData,</text>
<text text-anchor="start" x="17.5" y="-333" font-family="Helvetica,sans-Serif" font-size="10.00"> bool asMesh)</text>
<text text-anchor="start" x="4.5" y="-318" font-family="Helvetica,sans-Serif" font-size="10.00">+</text>
<text text-anchor="start" x="17.5" y="-318" font-family="Helvetica,sans-Serif" font-size="10.00">ColliderComponent</text>
<text text-anchor="start" x="17.5" y="-307" font-family="Helvetica,sans-Serif" font-size="10.00">(GameObject *owner,</text>
<text text-anchor="start" x="17.5" y="-296" font-family="Helvetica,sans-Serif" font-size="10.00"> const MeshData &amp;meshData,</text>
<text text-anchor="start" x="17.5" y="-285" font-family="Helvetica,sans-Serif" font-size="10.00"> Physics::ColliderType preferred)</text>
<text text-anchor="start" x="4.5" y="-270" font-family="Helvetica,sans-Serif" font-size="10.00">+</text>
<text text-anchor="start" x="17.5" y="-270" font-family="Helvetica,sans-Serif" font-size="10.00">ColliderComponent</text>
<text text-anchor="start" x="17.5" y="-259" font-family="Helvetica,sans-Serif" font-size="10.00">(GameObject *owner,</text>
<text text-anchor="start" x="17.5" y="-248" font-family="Helvetica,sans-Serif" font-size="10.00"> const Physics::AABB</text>
<text text-anchor="start" x="17.5" y="-237" font-family="Helvetica,sans-Serif" font-size="10.00"> &amp;aabb)</text>
<text text-anchor="start" x="4.5" y="-222" font-family="Helvetica,sans-Serif" font-size="10.00">+</text>
<text text-anchor="start" x="17.5" y="-222" font-family="Helvetica,sans-Serif" font-size="10.00">ColliderComponent</text>
<text text-anchor="start" x="17.5" y="-211" font-family="Helvetica,sans-Serif" font-size="10.00">(GameObject *owner,</text>
<text text-anchor="start" x="17.5" y="-200" font-family="Helvetica,sans-Serif" font-size="10.00"> const Physics::BoundingCapsule</text>
<text text-anchor="start" x="17.5" y="-189" font-family="Helvetica,sans-Serif" font-size="10.00"> &amp;capsule)</text>
<text text-anchor="start" x="4.5" y="-174" font-family="Helvetica,sans-Serif" font-size="10.00">+</text>
<text text-anchor="start" x="17.5" y="-174" font-family="Helvetica,sans-Serif" font-size="10.00">ColliderComponent</text>
<text text-anchor="start" x="17.5" y="-163" font-family="Helvetica,sans-Serif" font-size="10.00">(GameObject *owner,</text>
<text text-anchor="start" x="17.5" y="-152" font-family="Helvetica,sans-Serif" font-size="10.00"> const Physics::BoundingSphere</text>
<text text-anchor="start" x="17.5" y="-141" font-family="Helvetica,sans-Serif" font-size="10.00"> &amp;sphere)</text>
<text text-anchor="start" x="4.5" y="-126" font-family="Helvetica,sans-Serif" font-size="10.00">+</text>
<text text-anchor="start" x="17.5" y="-126" font-family="Helvetica,sans-Serif" font-size="10.00">~ColliderComponent</text>
<text text-anchor="start" x="17.5" y="-115" font-family="Helvetica,sans-Serif" font-size="10.00">() override=default</text>
<text text-anchor="start" x="4.5" y="-100" font-family="Helvetica,sans-Serif" font-size="10.00">+</text>
<text text-anchor="start" x="17.5" y="-100" font-family="Helvetica,sans-Serif" font-size="10.00">uint32_t GetLayer()</text>
<text text-anchor="start" x="17.5" y="-89" font-family="Helvetica,sans-Serif" font-size="10.00"> const</text>
<text text-anchor="start" x="4.5" y="-74" font-family="Helvetica,sans-Serif" font-size="10.00">+</text>
<text text-anchor="start" x="17.5" y="-74" font-family="Helvetica,sans-Serif" font-size="10.00">uint32_t GetMask()</text>
<text text-anchor="start" x="17.5" y="-63" font-family="Helvetica,sans-Serif" font-size="10.00"> const</text>
<text text-anchor="start" x="4.5" y="-48" font-family="Helvetica,sans-Serif" font-size="10.00">+</text>
<text text-anchor="start" x="17.5" y="-48" font-family="Helvetica,sans-Serif" font-size="10.00">Math::Vector3D GetOffset</text>
<text text-anchor="start" x="17.5" y="-37" font-family="Helvetica,sans-Serif" font-size="10.00">() const</text>
<text text-anchor="start" x="4.5" y="-22" font-family="Helvetica,sans-Serif" font-size="10.00">+</text>
<text text-anchor="start" x="17.5" y="-22" font-family="Helvetica,sans-Serif" font-size="10.00">int GetProxyId() const</text>
<text text-anchor="start" x="17.5" y="-7" font-family="Helvetica,sans-Serif" font-size="10.00">and 11 more...</text>
<polygon fill="#666666" stroke="#666666" points="0.5,-391 0.5,-391 181.5,-391 181.5,-391 0.5,-391"/>
<polygon fill="#666666" stroke="#666666" points="0.5,-376 0.5,-376 181.5,-376 181.5,-376 0.5,-376"/>
<polygon fill="none" stroke="#666666" points="0,0 0,-408 181,-408 181,0 0,0"/>
</a>
</g>
</g>
<!-- Node2 -->
<g id="Node000002" class="node">
<title>Node2</title>
<g id="a_Node000002"><a xlink:href="classSleak_1_1Component.html" target="_top" xlink:title=" ">
<polygon fill="white" stroke="transparent" points="165.5,-724 15.5,-724 15.5,-444 165.5,-444 165.5,-724"/>
<text text-anchor="start" x="45.5" y="-712" font-family="Helvetica,sans-Serif" font-size="10.00">Sleak::Component</text>
<text text-anchor="start" x="19.5" y="-697" font-family="Helvetica,sans-Serif" font-size="10.00">#</text>
<text text-anchor="start" x="32.5" y="-697" font-family="Helvetica,sans-Serif" font-size="10.00">bool bIsInitialized</text>
<text text-anchor="start" x="19.5" y="-682" font-family="Helvetica,sans-Serif" font-size="10.00">#</text>
<text text-anchor="start" x="32.5" y="-682" font-family="Helvetica,sans-Serif" font-size="10.00">GameObject * owner</text>
<text text-anchor="start" x="19.5" y="-667" font-family="Helvetica,sans-Serif" font-size="10.00">+</text>
<text text-anchor="start" x="32.5" y="-667" font-family="Helvetica,sans-Serif" font-size="10.00">Component(GameObject</text>
<text text-anchor="start" x="32.5" y="-656" font-family="Helvetica,sans-Serif" font-size="10.00"> *object)</text>
<text text-anchor="start" x="19.5" y="-641" font-family="Helvetica,sans-Serif" font-size="10.00">+</text>
<text text-anchor="start" x="32.5" y="-641" font-family="Helvetica,sans-Serif" font-size="10.00">virtual ~Component</text>
<text text-anchor="start" x="32.5" y="-630" font-family="Helvetica,sans-Serif" font-size="10.00">()=default</text>
<text text-anchor="start" x="19.5" y="-615" font-family="Helvetica,sans-Serif" font-size="10.00">+</text>
<text text-anchor="start" x="32.5" y="-615" font-family="Helvetica,sans-Serif" font-size="10.00">virtual void FixedUpdate</text>
<text text-anchor="start" x="32.5" y="-604" font-family="Helvetica,sans-Serif" font-size="10.00">(float fixedDeltaTime)</text>
<text text-anchor="start" x="19.5" y="-589" font-family="Helvetica,sans-Serif" font-size="10.00">+</text>
<text text-anchor="start" x="32.5" y="-589" font-family="Helvetica,sans-Serif" font-size="10.00">GameObject * GetOwner()</text>
<text text-anchor="start" x="19.5" y="-574" font-family="Helvetica,sans-Serif" font-size="10.00">+</text>
<text text-anchor="start" x="32.5" y="-574" font-family="Helvetica,sans-Serif" font-size="10.00">virtual bool Initialize()=0</text>
<text text-anchor="start" x="19.5" y="-559" font-family="Helvetica,sans-Serif" font-size="10.00">+</text>
<text text-anchor="start" x="32.5" y="-559" font-family="Helvetica,sans-Serif" font-size="10.00">bool IsInitialized</text>
<text text-anchor="start" x="32.5" y="-548" font-family="Helvetica,sans-Serif" font-size="10.00">() const</text>
<text text-anchor="start" x="19.5" y="-533" font-family="Helvetica,sans-Serif" font-size="10.00">+</text>
<text text-anchor="start" x="32.5" y="-533" font-family="Helvetica,sans-Serif" font-size="10.00">virtual void LateUpdate</text>
<text text-anchor="start" x="32.5" y="-522" font-family="Helvetica,sans-Serif" font-size="10.00">(float deltaTime)</text>
<text text-anchor="start" x="19.5" y="-507" font-family="Helvetica,sans-Serif" font-size="10.00">+</text>
<text text-anchor="start" x="32.5" y="-507" font-family="Helvetica,sans-Serif" font-size="10.00">virtual void OnDestroy()</text>
<text text-anchor="start" x="19.5" y="-492" font-family="Helvetica,sans-Serif" font-size="10.00">+</text>
<text text-anchor="start" x="32.5" y="-492" font-family="Helvetica,sans-Serif" font-size="10.00">virtual void OnDisable()</text>
<text text-anchor="start" x="19.5" y="-477" font-family="Helvetica,sans-Serif" font-size="10.00">+</text>
<text text-anchor="start" x="32.5" y="-477" font-family="Helvetica,sans-Serif" font-size="10.00">virtual void OnEnable()</text>
<text text-anchor="start" x="19.5" y="-462" font-family="Helvetica,sans-Serif" font-size="10.00">+</text>
<text text-anchor="start" x="32.5" y="-462" font-family="Helvetica,sans-Serif" font-size="10.00">virtual void Update</text>
<text text-anchor="start" x="32.5" y="-451" font-family="Helvetica,sans-Serif" font-size="10.00">(float deltaTime)=0</text>
<polygon fill="#666666" stroke="#666666" points="15.5,-707 15.5,-707 165.5,-707 165.5,-707 15.5,-707"/>
<polygon fill="#666666" stroke="#666666" points="15.5,-677 15.5,-677 30.5,-677 30.5,-677 15.5,-677"/>
<polygon fill="#666666" stroke="#666666" points="30.5,-677 30.5,-677 165.5,-677 165.5,-677 30.5,-677"/>
<polygon fill="none" stroke="#666666" points="15.5,-444 15.5,-724 165.5,-724 165.5,-444 15.5,-444"/>
</a>
</g>
</g>
<!-- Node2&#45;&gt;Node1 -->
<g id="edge1_Node000001_Node000002" class="edge">
<title>Node2&#45;&gt;Node1</title>
<g id="a_edge1_Node000001_Node000002"><a xlink:title=" ">
<path fill="none" stroke="#63b8ff" d="M90.5,-433.66C90.5,-425.25 90.5,-416.74 90.5,-408.18"/>
<polygon fill="none" stroke="#63b8ff" points="87,-433.86 90.5,-443.86 94,-433.86 87,-433.86"/>
</a>
</g>
</g>
<!-- Node3 -->
<g id="Node000003" class="node">
<title>Node3</title>
<g id="a_Node000003"><a xlink:href="classSleak_1_1Object.html" target="_top" xlink:title=" ">
<polygon fill="white" stroke="transparent" points="166,-939 15,-939 15,-760 166,-760 166,-939"/>
<text text-anchor="start" x="58.5" y="-926.5" font-family="Helvetica,sans-Serif" font-size="10.00">Sleak::Object</text>
<text text-anchor="start" x="89" y="-911.5" font-family="Helvetica,sans-Serif" font-size="10.00"> </text>
<text text-anchor="start" x="19.5" y="-896.5" font-family="Helvetica,sans-Serif" font-size="10.00">+</text>
<text text-anchor="start" x="32.5" y="-896.5" font-family="Helvetica,sans-Serif" font-size="10.00">Object(const std::</text>
<text text-anchor="start" x="32.5" y="-885.5" font-family="Helvetica,sans-Serif" font-size="10.00">string &amp;name=&quot;Object&quot;)</text>
<text text-anchor="start" x="19.5" y="-870.5" font-family="Helvetica,sans-Serif" font-size="10.00">+</text>
<text text-anchor="start" x="32.5" y="-870.5" font-family="Helvetica,sans-Serif" font-size="10.00">virtual ~Object()=default</text>
<text text-anchor="start" x="19.5" y="-855.5" font-family="Helvetica,sans-Serif" font-size="10.00">+</text>
<text text-anchor="start" x="32.5" y="-855.5" font-family="Helvetica,sans-Serif" font-size="10.00">std::string GetDebugName</text>
<text text-anchor="start" x="32.5" y="-844.5" font-family="Helvetica,sans-Serif" font-size="10.00">() const</text>
<text text-anchor="start" x="19.5" y="-829.5" font-family="Helvetica,sans-Serif" font-size="10.00">+</text>
<text text-anchor="start" x="32.5" y="-829.5" font-family="Helvetica,sans-Serif" font-size="10.00">const std::string &amp;</text>
<text text-anchor="start" x="32.5" y="-818.5" font-family="Helvetica,sans-Serif" font-size="10.00"> GetName() const</text>
<text text-anchor="start" x="19.5" y="-803.5" font-family="Helvetica,sans-Serif" font-size="10.00">+</text>
<text text-anchor="start" x="32.5" y="-803.5" font-family="Helvetica,sans-Serif" font-size="10.00">uint64_t GetUniqueID</text>
<text text-anchor="start" x="32.5" y="-792.5" font-family="Helvetica,sans-Serif" font-size="10.00">() const</text>
<text text-anchor="start" x="19.5" y="-777.5" font-family="Helvetica,sans-Serif" font-size="10.00">+</text>
<text text-anchor="start" x="32.5" y="-777.5" font-family="Helvetica,sans-Serif" font-size="10.00">void SetName(const</text>
<text text-anchor="start" x="32.5" y="-766.5" font-family="Helvetica,sans-Serif" font-size="10.00"> std::string &amp;value)</text>
<polygon fill="#666666" stroke="#666666" points="15.5,-921.5 15.5,-921.5 166.5,-921.5 166.5,-921.5 15.5,-921.5"/>
<polygon fill="#666666" stroke="#666666" points="15.5,-906.5 15.5,-906.5 166.5,-906.5 166.5,-906.5 15.5,-906.5"/>
<polygon fill="none" stroke="#666666" points="15,-760 15,-939 166,-939 166,-760 15,-760"/>
</a>
</g>
</g>
<!-- Node3&#45;&gt;Node2 -->
<g id="edge2_Node000002_Node000003" class="edge">
<title>Node3&#45;&gt;Node2</title>
<g id="a_edge2_Node000002_Node000003"><a xlink:title=" ">
<path fill="none" stroke="#63b8ff" d="M90.5,-749.57C90.5,-741.21 90.5,-732.67 90.5,-724.08"/>
<polygon fill="none" stroke="#63b8ff" points="87,-749.66 90.5,-759.66 94,-749.66 87,-749.66"/>
</a>
</g>
</g>
</g>
</svg>

<g id="navigator" transform="translate(0 0)" fill="#404254">
  <rect fill="#f2f5e9" fill-opacity="0.5" stroke="#606060" stroke-width=".5" x="0" y="0" width="60" height="60"/>
  <use id="zoomplus" xlink:href="#zoomPlus" x="17" y="9" data-zoom="in"/>
  <use id="zoomminus" xlink:href="#zoomMin" x="42" y="9" data-zoom="out"/>
  <use id="reset" xlink:href="#resetDef" x="30" y="36" data-reset="true"/>
  <use id="arrowup" xlink:href="#arrowUp" x="0" y="0" data-pan-x="0" data-pan-y="-1"/>
  <use id="arrowright" xlink:href="#arrowRight" x="0" y="0" data-pan-x="1" data-pan-y="0"/>
  <use id="arrowdown" xlink:href="#arrowDown" x="0" y="0" data-pan-x="0" data-pan-y="1"/>
  <use id="arrowleft" xlink:href="#arrowLeft" x="0" y="0" data-pan-x="-1" data-pan-y="0"/>
</g>
<svg viewBox="0 0 15 15" width="100%" height="30px" preserveAspectRatio="xMaxYMin meet">
 <g id="arrow_out" transform="scale(0.3 0.3)">
  <a xlink:href="classSleak_1_1ColliderComponent__inherit__graph_org.svg" target="_base">
   <rect id="button" ry="5" rx="5" y="6" x="6" height="38" width="38"
        fill="#f2f5e9" fill-opacity="0.5" stroke="#606060" stroke-width="1.0"/>
   <path id="arrow"
     d="M 11.500037,31.436501 C 11.940474,20.09759 22.043105,11.32322 32.158766,21.979434 L 37.068811,17.246167 C 37.068811,17.246167 37.088388,32 37.088388,32 L 22.160133,31.978069 C 22.160133,31.978069 26.997745,27.140456 26.997745,27.140456 C 18.528582,18.264221 13.291696,25.230495 11.500037,31.436501 z"
     style="fill:#404040;"/>
  </a>
 </g>
</svg>

<style type='text/css'>
<![CDATA[
[data-mouse-over-selected='false'] { opacity: 0.7; }
[data-mouse-over-selected='true']  { opacity: 1.0; }
]]>
</style>
</svg>
