<?xml version="1.0" encoding="UTF-8" standalone="no"?>
<!DOCTYPE svg PUBLIC "-//W3C//DTD SVG 1.1//EN"
 "http://www.w3.org/Graphics/SVG/1.1/DTD/svg11.dtd">
<!-- Generated by graphviz version 2.43.0 (0)
 -->
<!-- Title: Sleak::SleakException Pages: 1 -->
<!--zoomable 415 -->

<svg id="main" version="1.1" xmlns="http://www.w3.org/2000/svg" xmlns:xlink="http://www.w3.org/1999/xlink" xml:space="preserve">

<style type="text/css"><![CDATA[
.node, .edge {opacity: 0.7;}
.node.selected, .edge.selected {opacity: 1;}
.edge:hover path { stroke: red; }
.edge:hover polygon { stroke: red; fill: red; }
]]></style>

<defs>
  <circle id="rim" cx="0" cy="0" r="7"/>
  <circle id="rim2" cx="0" cy="0" r="3.5"/>
  <g id="zoomPlus">
    <use xlink:href="#rim" fill="#404040"><set attributeName="fill" to="#808080" begin="zoomplus.mouseover" end="zoomplus.mouseout"/></use>
    <path d="M-4,0h8M0,-4v8" fill="none" stroke="white" stroke-width="1.5" pointer-events="none"/>
  </g>
  <g id="zoomMin">
    <use xlink:href="#rim" fill="#404040"><set attributeName="fill" to="#808080" begin="zoomminus.mouseover" end="zoomminus.mouseout"/></use>
    <path d="M-4,0h8" fill="none" stroke="white" stroke-width="1.5" pointer-events="none"/>
  </g>
  <g id="arrowUp" transform="translate(30 24)">
    <use xlink:href="#rim"/>
    <path pointer-events="none" fill="none" stroke="white" stroke-width="1.5" d="M0,-3.0v7 M-2.5,-0.5L0,-3.0L2.5,-0.5"/>
  </g>
  <g id="arrowRight" transform="rotate(90) translate(36 -43)">
    <use xlink:href="#rim"/>
    <path pointer-events="none" fill="none" stroke="white" stroke-width="1.5" d="M0,-3.0v7 M-2.5,-0.5L0,-3.0L2.5,-0.5"/>
  </g>
  <g id="arrowDown" transform="rotate(180) translate(-30 -48)">
    <use xlink:href="#rim"/>
    <path pointer-events="none" fill="none" stroke="white" stroke-width="1.5" d="M0,-3.0v7 M-2.5,-0.5L0,-3.0L2.5,-0.5"/>
  </g>
  <g id="arrowLeft" transform="rotate(270) translate(-36 17)">
    <use xlink:href="#rim"/>
    <path pointer-events="none" fill="none" stroke="white" stroke-width="1.5" d="M0,-3.0v7 M-2.5,-0.5L0,-3.0L2.5,-0.5"/>
  </g>
  <g id="resetDef">
    <use xlink:href="#rim2" fill="#404040"><set attributeName="fill" to="#808080" begin="reset.mouseover" end="reset.mouseout"/></use>
  </g>
</defs>
<script type="application/ecmascript" xlink:href="svg.min.js"/>
<svg id="graph" class="graph" data-view-width="1270" data-view-height="415" data-section-id="dynsection-0">
<g id="viewport">
<title>Sleak::SleakException</title>
<!-- Node1 -->
<g id="Node000001" class="node">
<title>Node1</title>
<g id="a_Node000001"><a xlink:title=" ">
<polygon fill="#999999" stroke="transparent" points="694,-322 552,-322 552,-225 694,-225 694,-322"/>
<text text-anchor="start" x="568.5" y="-309.5" font-family="Helvetica,sans-Serif" font-size="10.00">Sleak::SleakException</text>
<text text-anchor="start" x="556" y="-294.5" font-family="Helvetica,sans-Serif" font-size="10.00">#</text>
<text text-anchor="start" x="569" y="-294.5" font-family="Helvetica,sans-Serif" font-size="10.00">std::string message_</text>
<text text-anchor="start" x="556" y="-279.5" font-family="Helvetica,sans-Serif" font-size="10.00">+</text>
<text text-anchor="start" x="569" y="-279.5" font-family="Helvetica,sans-Serif" font-size="10.00">SleakException(const</text>
<text text-anchor="start" x="569" y="-268.5" font-family="Helvetica,sans-Serif" font-size="10.00"> std::string &amp;message)</text>
<text text-anchor="start" x="556" y="-253.5" font-family="Helvetica,sans-Serif" font-size="10.00">+</text>
<text text-anchor="start" x="569" y="-253.5" font-family="Helvetica,sans-Serif" font-size="10.00">virtual const char</text>
<text text-anchor="start" x="569" y="-242.5" font-family="Helvetica,sans-Serif" font-size="10.00"> * what() const noexcept</text>
<text text-anchor="start" x="569" y="-231.5" font-family="Helvetica,sans-Serif" font-size="10.00"> override</text>
<polygon fill="#666666" stroke="#666666" points="552,-304.5 552,-304.5 694,-304.5 694,-304.5 552,-304.5"/>
<polygon fill="#666666" stroke="#666666" points="552,-289.5 552,-289.5 567,-289.5 567,-289.5 552,-289.5"/>
<polygon fill="#666666" stroke="#666666" points="567,-289.5 567,-289.5 694,-289.5 694,-289.5 567,-289.5"/>
<polygon fill="none" stroke="#666666" points="552,-225 552,-322 694,-322 694,-225 552,-225"/>
</a>
</g>
</g>
<!-- Node3 -->
<g id="Node000003" class="node">
<title>Node3</title>
<g id="a_Node000003"><a xlink:href="classSleak_1_1EmptyContainerException.html" target="_top" xlink:title=" ">
<polygon fill="white" stroke="transparent" points="170,-189 0,-189 0,-118 170,-118 170,-189"/>
<text text-anchor="start" x="5" y="-176.5" font-family="Helvetica,sans-Serif" font-size="10.00">Sleak::EmptyContainerException</text>
<text text-anchor="start" x="83" y="-161.5" font-family="Helvetica,sans-Serif" font-size="10.00"> </text>
<text text-anchor="start" x="7" y="-146.5" font-family="Helvetica,sans-Serif" font-size="10.00">+</text>
<text text-anchor="start" x="23" y="-146.5" font-family="Helvetica,sans-Serif" font-size="10.00">EmptyContainerException</text>
<text text-anchor="start" x="23" y="-135.5" font-family="Helvetica,sans-Serif" font-size="10.00">(const std::string &amp;message</text>
<text text-anchor="start" x="23" y="-124.5" font-family="Helvetica,sans-Serif" font-size="10.00">=&quot;Container is empty&quot;)</text>
<polygon fill="#666666" stroke="#666666" points="0,-171.5 0,-171.5 170,-171.5 170,-171.5 0,-171.5"/>
<polygon fill="#666666" stroke="#666666" points="0,-156.5 0,-156.5 170,-156.5 170,-156.5 0,-156.5"/>
<polygon fill="none" stroke="#666666" points="0,-118 0,-189 170,-189 170,-118 0,-118"/>
</a>
</g>
</g>
<!-- Node1&#45;&gt;Node3 -->
<g id="edge2_Node000001_Node000003" class="edge">
<title>Node1&#45;&gt;Node3</title>
<g id="a_edge2_Node000001_Node000003"><a xlink:title=" ">
<path fill="none" stroke="#63b8ff" d="M541.7,-261.35C451.96,-248.09 303.69,-223.35 179,-189 176.07,-188.19 173.1,-187.33 170.11,-186.43"/>
<polygon fill="none" stroke="#63b8ff" points="541.41,-264.85 551.81,-262.83 542.43,-257.92 541.41,-264.85"/>
</a>
</g>
</g>
<!-- Node4 -->
<g id="Node000004" class="node">
<title>Node4</title>
<g id="a_Node000004"><a xlink:href="classSleak_1_1FileIOException.html" target="_top" xlink:title=" ">
<polygon fill="white" stroke="transparent" points="316,-189 188,-189 188,-118 316,-118 316,-189"/>
<text text-anchor="start" x="197.5" y="-176.5" font-family="Helvetica,sans-Serif" font-size="10.00">Sleak::FileIOException</text>
<text text-anchor="start" x="250" y="-161.5" font-family="Helvetica,sans-Serif" font-size="10.00"> </text>
<text text-anchor="start" x="192" y="-146.5" font-family="Helvetica,sans-Serif" font-size="10.00">+</text>
<text text-anchor="start" x="205" y="-146.5" font-family="Helvetica,sans-Serif" font-size="10.00">FileIOException(const</text>
<text text-anchor="start" x="205" y="-135.5" font-family="Helvetica,sans-Serif" font-size="10.00"> std::string &amp;message</text>
<text text-anchor="start" x="205" y="-124.5" font-family="Helvetica,sans-Serif" font-size="10.00">=&quot;File I/O error&quot;)</text>
<polygon fill="#666666" stroke="#666666" points="188,-171.5 188,-171.5 316,-171.5 316,-171.5 188,-171.5"/>
<polygon fill="#666666" stroke="#666666" points="188,-156.5 188,-156.5 316,-156.5 316,-156.5 188,-156.5"/>
<polygon fill="none" stroke="#666666" points="188,-118 188,-189 316,-189 316,-118 188,-118"/>
</a>
</g>
</g>
<!-- Node1&#45;&gt;Node4 -->
<g id="edge3_Node000001_Node000004" class="edge">
<title>Node1&#45;&gt;Node4</title>
<g id="a_edge3_Node000001_Node000004"><a xlink:title=" ">
<path fill="none" stroke="#63b8ff" d="M541.89,-253.7C481.29,-238.72 396.88,-215.84 325,-189 322.11,-187.92 319.18,-186.77 316.23,-185.58"/>
<polygon fill="none" stroke="#63b8ff" points="541.24,-257.14 551.78,-256.13 542.91,-250.35 541.24,-257.14"/>
</a>
</g>
</g>
<!-- Node5 -->
<g id="Node000005" class="node">
<title>Node5</title>
<g id="a_Node000005"><a xlink:href="classSleak_1_1IndexOutOfBoundsException.html" target="_top" xlink:title=" ">
<polygon fill="white" stroke="transparent" points="517.5,-189 334.5,-189 334.5,-118 517.5,-118 517.5,-189"/>
<text text-anchor="start" x="340" y="-176.5" font-family="Helvetica,sans-Serif" font-size="10.00">Sleak::IndexOutOfBoundsException</text>
<text text-anchor="start" x="424.5" y="-161.5" font-family="Helvetica,sans-Serif" font-size="10.00"> </text>
<text text-anchor="start" x="344.5" y="-146.5" font-family="Helvetica,sans-Serif" font-size="10.00">+</text>
<text text-anchor="start" x="363" y="-146.5" font-family="Helvetica,sans-Serif" font-size="10.00">IndexOutOfBoundsException</text>
<text text-anchor="start" x="363" y="-135.5" font-family="Helvetica,sans-Serif" font-size="10.00">(const std::string &amp;message</text>
<text text-anchor="start" x="363" y="-124.5" font-family="Helvetica,sans-Serif" font-size="10.00">=&quot;Index out of bounds&quot;)</text>
<polygon fill="#666666" stroke="#666666" points="335,-171.5 335,-171.5 518,-171.5 518,-171.5 335,-171.5"/>
<polygon fill="#666666" stroke="#666666" points="335,-156.5 335,-156.5 518,-156.5 518,-156.5 335,-156.5"/>
<polygon fill="none" stroke="#666666" points="334.5,-118 334.5,-189 517.5,-189 517.5,-118 334.5,-118"/>
</a>
</g>
</g>
<!-- Node1&#45;&gt;Node5 -->
<g id="edge4_Node000001_Node000005" class="edge">
<title>Node1&#45;&gt;Node5</title>
<g id="a_edge4_Node000001_Node000005"><a xlink:title=" ">
<path fill="none" stroke="#63b8ff" d="M543.14,-224.66C523.26,-212.76 502.34,-200.22 483.76,-189.1"/>
<polygon fill="none" stroke="#63b8ff" points="541.5,-227.76 551.88,-229.9 545.1,-221.76 541.5,-227.76"/>
</a>
</g>
</g>
<!-- Node6 -->
<g id="Node000006" class="node">
<title>Node6</title>
<g id="a_Node000006"><a xlink:href="classSleak_1_1InvalidArgumentException.html" target="_top" xlink:title=" ">
<polygon fill="white" stroke="transparent" points="710.5,-189 535.5,-189 535.5,-118 710.5,-118 710.5,-189"/>
<text text-anchor="start" x="542" y="-176.5" font-family="Helvetica,sans-Serif" font-size="10.00">Sleak::InvalidArgumentException</text>
<text text-anchor="start" x="621.5" y="-161.5" font-family="Helvetica,sans-Serif" font-size="10.00"> </text>
<text text-anchor="start" x="540" y="-146.5" font-family="Helvetica,sans-Serif" font-size="10.00">+</text>
<text text-anchor="start" x="553" y="-146.5" font-family="Helvetica,sans-Serif" font-size="10.00">InvalidArgumentException</text>
<text text-anchor="start" x="553" y="-135.5" font-family="Helvetica,sans-Serif" font-size="10.00">(const std::string &amp;message</text>
<text text-anchor="start" x="553" y="-124.5" font-family="Helvetica,sans-Serif" font-size="10.00">=&quot;Invalid argument operation&quot;)</text>
<polygon fill="#666666" stroke="#666666" points="536,-171.5 536,-171.5 711,-171.5 711,-171.5 536,-171.5"/>
<polygon fill="#666666" stroke="#666666" points="536,-156.5 536,-156.5 711,-156.5 711,-156.5 536,-156.5"/>
<polygon fill="none" stroke="#666666" points="535.5,-118 535.5,-189 710.5,-189 710.5,-118 535.5,-118"/>
</a>
</g>
</g>
<!-- Node1&#45;&gt;Node6 -->
<g id="edge5_Node000001_Node000006" class="edge">
<title>Node1&#45;&gt;Node6</title>
<g id="a_edge5_Node000001_Node000006"><a xlink:title=" ">
<path fill="none" stroke="#63b8ff" d="M623,-214.7C623,-206.01 623,-197.28 623,-189.27"/>
<polygon fill="none" stroke="#63b8ff" points="619.5,-214.84 623,-224.85 626.5,-214.85 619.5,-214.84"/>
</a>
</g>
</g>
<!-- Node7 -->
<g id="Node000007" class="node">
<title>Node7</title>
<g id="a_Node000007"><a xlink:href="classSleak_1_1InvalidIteratorException.html" target="_top" xlink:title=" ">
<polygon fill="white" stroke="transparent" points="893,-189 729,-189 729,-118 893,-118 893,-189"/>
<text text-anchor="start" x="735.5" y="-176.5" font-family="Helvetica,sans-Serif" font-size="10.00">Sleak::InvalidIteratorException</text>
<text text-anchor="start" x="809" y="-161.5" font-family="Helvetica,sans-Serif" font-size="10.00"> </text>
<text text-anchor="start" x="733" y="-146.5" font-family="Helvetica,sans-Serif" font-size="10.00">+</text>
<text text-anchor="start" x="746" y="-146.5" font-family="Helvetica,sans-Serif" font-size="10.00">InvalidIteratorException</text>
<text text-anchor="start" x="746" y="-135.5" font-family="Helvetica,sans-Serif" font-size="10.00">(const std::string &amp;message</text>
<text text-anchor="start" x="746" y="-124.5" font-family="Helvetica,sans-Serif" font-size="10.00">=&quot;Invalid iterator operation&quot;)</text>
<polygon fill="#666666" stroke="#666666" points="729,-171.5 729,-171.5 893,-171.5 893,-171.5 729,-171.5"/>
<polygon fill="#666666" stroke="#666666" points="729,-156.5 729,-156.5 893,-156.5 893,-156.5 729,-156.5"/>
<polygon fill="none" stroke="#666666" points="729,-118 729,-189 893,-189 893,-118 729,-118"/>
</a>
</g>
</g>
<!-- Node1&#45;&gt;Node7 -->
<g id="edge6_Node000001_Node000007" class="edge">
<title>Node1&#45;&gt;Node7</title>
<g id="a_edge6_Node000001_Node000007"><a xlink:title=" ">
<path fill="none" stroke="#63b8ff" d="M702.8,-222.41C720.7,-211.18 739.31,-199.5 755.95,-189.06"/>
<polygon fill="none" stroke="#63b8ff" points="700.68,-219.61 694.07,-227.89 704.41,-225.54 700.68,-219.61"/>
</a>
</g>
</g>
<!-- Node8 -->
<g id="Node000008" class="node">
<title>Node8</title>
<g id="a_Node000008"><a xlink:href="classSleak_1_1NotImplementedException.html" target="_top" xlink:title=" ">
<polygon fill="white" stroke="transparent" points="1085,-189 911,-189 911,-118 1085,-118 1085,-189"/>
<text text-anchor="start" x="916" y="-176.5" font-family="Helvetica,sans-Serif" font-size="10.00">Sleak::NotImplementedException</text>
<text text-anchor="start" x="996" y="-161.5" font-family="Helvetica,sans-Serif" font-size="10.00"> </text>
<text text-anchor="start" x="919" y="-146.5" font-family="Helvetica,sans-Serif" font-size="10.00">+</text>
<text text-anchor="start" x="936" y="-146.5" font-family="Helvetica,sans-Serif" font-size="10.00">NotImplementedException</text>
<text text-anchor="start" x="936" y="-135.5" font-family="Helvetica,sans-Serif" font-size="10.00">(const std::string &amp;message</text>
<text text-anchor="start" x="936" y="-124.5" font-family="Helvetica,sans-Serif" font-size="10.00">=&quot;Not implemented&quot;)</text>
<polygon fill="#666666" stroke="#666666" points="911,-171.5 911,-171.5 1085,-171.5 1085,-171.5 911,-171.5"/>
<polygon fill="#666666" stroke="#666666" points="911,-156.5 911,-156.5 1085,-156.5 1085,-156.5 911,-156.5"/>
<polygon fill="none" stroke="#666666" points="911,-118 911,-189 1085,-189 1085,-118 911,-118"/>
</a>
</g>
</g>
<!-- Node1&#45;&gt;Node8 -->
<g id="edge7_Node000001_Node000008" class="edge">
<title>Node1&#45;&gt;Node8</title>
<g id="a_edge7_Node000001_Node000008"><a xlink:title=" ">
<path fill="none" stroke="#63b8ff" d="M703.98,-249.52C759.86,-233.36 835.74,-210.8 902,-189 904.94,-188.03 907.93,-187.03 910.95,-186.02"/>
<polygon fill="none" stroke="#63b8ff" points="702.78,-246.23 694.14,-252.36 704.72,-252.95 702.78,-246.23"/>
</a>
</g>
</g>
<!-- Node9 -->
<g id="Node000009" class="node">
<title>Node9</title>
<g id="a_Node000009"><a xlink:href="classSleak_1_1NullPointerException.html" target="_top" xlink:title=" ">
<polygon fill="white" stroke="transparent" points="1261,-189 1103,-189 1103,-118 1261,-118 1261,-189"/>
<text text-anchor="start" x="1114" y="-176.5" font-family="Helvetica,sans-Serif" font-size="10.00">Sleak::NullPointerException</text>
<text text-anchor="start" x="1180" y="-161.5" font-family="Helvetica,sans-Serif" font-size="10.00"> </text>
<text text-anchor="start" x="1107" y="-146.5" font-family="Helvetica,sans-Serif" font-size="10.00">+</text>
<text text-anchor="start" x="1120" y="-146.5" font-family="Helvetica,sans-Serif" font-size="10.00">NullPointerException</text>
<text text-anchor="start" x="1120" y="-135.5" font-family="Helvetica,sans-Serif" font-size="10.00">(const std::string &amp;message</text>
<text text-anchor="start" x="1120" y="-124.5" font-family="Helvetica,sans-Serif" font-size="10.00">=&quot;Null pointer access&quot;)</text>
<polygon fill="#666666" stroke="#666666" points="1103,-171.5 1103,-171.5 1261,-171.5 1261,-171.5 1103,-171.5"/>
<polygon fill="#666666" stroke="#666666" points="1103,-156.5 1103,-156.5 1261,-156.5 1261,-156.5 1103,-156.5"/>
<polygon fill="none" stroke="#666666" points="1103,-118 1103,-189 1261,-189 1261,-118 1103,-118"/>
</a>
</g>
</g>
<!-- Node1&#45;&gt;Node9 -->
<g id="edge8_Node000001_Node000009" class="edge">
<title>Node1&#45;&gt;Node9</title>
<g id="a_edge8_Node000001_Node000009"><a xlink:title=" ">
<path fill="none" stroke="#63b8ff" d="M704.3,-263.07C799.06,-250.93 959.8,-226.8 1094,-189 1096.84,-188.2 1099.72,-187.34 1102.62,-186.44"/>
<polygon fill="none" stroke="#63b8ff" points="703.69,-259.62 694.2,-264.35 704.57,-266.56 703.69,-259.62"/>
</a>
</g>
</g>
<!-- Node2 -->
<g id="Node000002" class="node">
<title>Node2</title>
<g id="a_Node000002"><a xlink:title=" ">
<polygon fill="white" stroke="transparent" points="663,-407 583,-407 583,-358 663,-358 663,-407"/>
<text text-anchor="start" x="588" y="-394.5" font-family="Helvetica,sans-Serif" font-size="10.00">std::exception</text>
<text text-anchor="start" x="621" y="-379.5" font-family="Helvetica,sans-Serif" font-size="10.00"> </text>
<text text-anchor="start" x="621" y="-364.5" font-family="Helvetica,sans-Serif" font-size="10.00"> </text>
<polygon fill="#666666" stroke="#666666" points="583,-389.5 583,-389.5 663,-389.5 663,-389.5 583,-389.5"/>
<polygon fill="#666666" stroke="#666666" points="583,-374.5 583,-374.5 663,-374.5 663,-374.5 583,-374.5"/>
<polygon fill="none" stroke="#666666" points="583,-358 583,-407 663,-407 663,-358 583,-358"/>
</a>
</g>
</g>
<!-- Node2&#45;&gt;Node1 -->
<g id="edge1_Node000001_Node000002" class="edge">
<title>Node2&#45;&gt;Node1</title>
<g id="a_edge1_Node000001_Node000002"><a xlink:title=" ">
<path fill="none" stroke="#63b8ff" d="M623,-347.64C623,-339.59 623,-330.85 623,-322.3"/>
<polygon fill="none" stroke="#63b8ff" points="619.5,-347.75 623,-357.75 626.5,-347.75 619.5,-347.75"/>
</a>
</g>
</g>
<!-- Node10 -->
<g id="Node000010" class="node">
<title>Node10</title>
<g id="a_Node000010"><a xlink:href="classSleak_1_1CameraNotFound.html" target="_top" xlink:title=" ">
<polygon fill="white" stroke="transparent" points="1262,-82 1102,-82 1102,0 1262,0 1262,-82"/>
<text text-anchor="start" x="1123" y="-70" font-family="Helvetica,sans-Serif" font-size="10.00">Sleak::CameraNotFound</text>
<text text-anchor="start" x="1180" y="-55" font-family="Helvetica,sans-Serif" font-size="10.00"> </text>
<text text-anchor="start" x="1106" y="-40" font-family="Helvetica,sans-Serif" font-size="10.00">+</text>
<text text-anchor="start" x="1119" y="-40" font-family="Helvetica,sans-Serif" font-size="10.00">CameraNotFound(const</text>
<text text-anchor="start" x="1119" y="-29" font-family="Helvetica,sans-Serif" font-size="10.00"> std::string &amp;message</text>
<text text-anchor="start" x="1119" y="-18" font-family="Helvetica,sans-Serif" font-size="10.00">=&quot;No camera found in static</text>
<text text-anchor="start" x="1119" y="-7" font-family="Helvetica,sans-Serif" font-size="10.00"> list!&quot;)</text>
<polygon fill="#666666" stroke="#666666" points="1102,-65 1102,-65 1262,-65 1262,-65 1102,-65"/>
<polygon fill="#666666" stroke="#666666" points="1102,-50 1102,-50 1262,-50 1262,-50 1102,-50"/>
<polygon fill="none" stroke="#666666" points="1102,0 1102,-82 1262,-82 1262,0 1102,0"/>
</a>
</g>
</g>
<!-- Node9&#45;&gt;Node10 -->
<g id="edge9_Node000009_Node000010" class="edge">
<title>Node9&#45;&gt;Node10</title>
<g id="a_edge9_Node000009_Node000010"><a xlink:title=" ">
<path fill="none" stroke="#63b8ff" d="M1182,-107.79C1182,-99.37 1182,-90.61 1182,-82.33"/>
<polygon fill="none" stroke="#63b8ff" points="1178.5,-107.84 1182,-117.84 1185.5,-107.84 1178.5,-107.84"/>
</a>
</g>
</g>
</g>
</svg>

<g id="navigator" transform="translate(0 0)" fill="#404254">
  <rect fill="#f2f5e9" fill-opacity="0.5" stroke="#606060" stroke-width=".5" x="0" y="0" width="60" height="60"/>
  <use id="zoomplus" xlink:href="#zoomPlus" x="17" y="9" data-zoom="in"/>
  <use id="zoomminus" xlink:href="#zoomMin" x="42" y="9" data-zoom="out"/>
  <use id="reset" xlink:href="#resetDef" x="30" y="36" data-reset="true"/>
  <use id="arrowup" xlink:href="#arrowUp" x="0" y="0" data-pan-x="0" data-pan-y="-1"/>
  <use id="arrowright" xlink:href="#arrowRight" x="0" y="0" data-pan-x="1" data-pan-y="0"/>
  <use id="arrowdown" xlink:href="#arrowDown" x="0" y="0" data-pan-x="0" data-pan-y="1"/>
  <use id="arrowleft" xlink:href="#arrowLeft" x="0" y="0" data-pan-x="-1" data-pan-y="0"/>
</g>
<svg viewBox="0 0 15 15" width="100%" height="30px" preserveAspectRatio="xMaxYMin meet">
 <g id="arrow_out" transform="scale(0.3 0.3)">
  <a xlink:href="classSleak_1_1SleakException__inherit__graph_org.svg" target="_base">
   <rect id="button" ry="5" rx="5" y="6" x="6" height="38" width="38"
        fill="#f2f5e9" fill-opacity="0.5" stroke="#606060" stroke-width="1.0"/>
   <path id="arrow"
     d="M 11.500037,31.436501 C 11.940474,20.09759 22.043105,11.32322 32.158766,21.979434 L 37.068811,17.246167 C 37.068811,17.246167 37.088388,32 37.088388,32 L 22.160133,31.978069 C 22.160133,31.978069 26.997745,27.140456 26.997745,27.140456 C 18.528582,18.264221 13.291696,25.230495 11.500037,31.436501 z"
     style="fill:#404040;"/>
  </a>
 </g>
</svg>

<style type='text/css'>
<![CDATA[
[data-mouse-over-selected='false'] { opacity: 0.7; }
[data-mouse-over-selected='true']  { opacity: 1.0; }
]]>
</style>
</svg>
