<?xml version="1.0" encoding="UTF-8" standalone="no"?>
<!DOCTYPE svg PUBLIC "-//W3C//DTD SVG 1.1//EN"
 "http://www.w3.org/Graphics/SVG/1.1/DTD/svg11.dtd">
<!-- Generated by graphviz version 2.43.0 (0)
 -->
<!-- Title: Sleak::RigidbodyComponent Pages: 1 -->
<!--zoomable 796 -->

<svg id="main" version="1.1" xmlns="http://www.w3.org/2000/svg" xmlns:xlink="http://www.w3.org/1999/xlink" xml:space="preserve">

<style type="text/css"><![CDATA[
.node, .edge {opacity: 0.7;}
.node.selected, .edge.selected {opacity: 1;}
.edge:hover path { stroke: red; }
.edge:hover polygon { stroke: red; fill: red; }
]]></style>

<defs>
  <circle id="rim" cx="0" cy="0" r="7"/>
  <circle id="rim2" cx="0" cy="0" r="3.5"/>
  <g id="zoomPlus">
    <use xlink:href="#rim" fill="#404040"><set attributeName="fill" to="#808080" begin="zoomplus.mouseover" end="zoomplus.mouseout"/></use>
    <path d="M-4,0h8M0,-4v8" fill="none" stroke="white" stroke-width="1.5" pointer-events="none"/>
  </g>
  <g id="zoomMin">
    <use xlink:href="#rim" fill="#404040"><set attributeName="fill" to="#808080" begin="zoomminus.mouseover" end="zoomminus.mouseout"/></use>
    <path d="M-4,0h8" fill="none" stroke="white" stroke-width="1.5" pointer-events="none"/>
  </g>
  <g id="arrowUp" transform="translate(30 24)">
    <use xlink:href="#rim"/>
    <path pointer-events="none" fill="none" stroke="white" stroke-width="1.5" d="M0,-3.0v7 M-2.5,-0.5L0,-3.0L2.5,-0.5"/>
  </g>
  <g id="arrowRight" transform="rotate(90) translate(36 -43)">
    <use xlink:href="#rim"/>
    <path pointer-events="none" fill="none" stroke="white" stroke-width="1.5" d="M0,-3.0v7 M-2.5,-0.5L0,-3.0L2.5,-0.5"/>
  </g>
  <g id="arrowDown" transform="rotate(180) translate(-30 -48)">
    <use xlink:href="#rim"/>
    <path pointer-events="none" fill="none" stroke="white" stroke-width="1.5" d="M0,-3.0v7 M-2.5,-0.5L0,-3.0L2.5,-0.5"/>
  </g>
  <g id="arrowLeft" transform="rotate(270) translate(-36 17)">
    <use xlink:href="#rim"/>
    <path pointer-events="none" fill="none" stroke="white" stroke-width="1.5" d="M0,-3.0v7 M-2.5,-0.5L0,-3.0L2.5,-0.5"/>
  </g>
  <g id="resetDef">
    <use xlink:href="#rim2" fill="#404040"><set attributeName="fill" to="#808080" begin="reset.mouseover" end="reset.mouseout"/></use>
  </g>
</defs>
<script type="application/ecmascript" xlink:href="svg.min.js"/>
<svg id="graph" class="graph" data-view-width="187" data-view-height="796" data-section-id="dynsection-0">
<g id="viewport">
<title>Sleak::RigidbodyComponent</title>
<!-- Node1 -->
<g id="Node000001" class="node">
<title>Node1</title>
<g id="a_Node000001"><a xlink:title=" ">
<polygon fill="#999999" stroke="transparent" points="179,-309 0,-309 0,0 179,0 179,-309"/>
<text text-anchor="start" x="20.5" y="-296.5" font-family="Helvetica,sans-Serif" font-size="10.00">Sleak::RigidbodyComponent</text>
<text text-anchor="start" x="88" y="-281.5" font-family="Helvetica,sans-Serif" font-size="10.00"> </text>
<text text-anchor="start" x="4.5" y="-266.5" font-family="Helvetica,sans-Serif" font-size="10.00">+</text>
<text text-anchor="start" x="17.5" y="-266.5" font-family="Helvetica,sans-Serif" font-size="10.00">RigidbodyComponent</text>
<text text-anchor="start" x="17.5" y="-255.5" font-family="Helvetica,sans-Serif" font-size="10.00">(GameObject *owner,</text>
<text text-anchor="start" x="17.5" y="-244.5" font-family="Helvetica,sans-Serif" font-size="10.00"> BodyType type=BodyType</text>
<text text-anchor="start" x="17.5" y="-233.5" font-family="Helvetica,sans-Serif" font-size="10.00">::Kinematic)</text>
<text text-anchor="start" x="4.5" y="-218.5" font-family="Helvetica,sans-Serif" font-size="10.00">+</text>
<text text-anchor="start" x="17.5" y="-218.5" font-family="Helvetica,sans-Serif" font-size="10.00">~RigidbodyComponent</text>
<text text-anchor="start" x="17.5" y="-207.5" font-family="Helvetica,sans-Serif" font-size="10.00">() override=default</text>
<text text-anchor="start" x="4.5" y="-192.5" font-family="Helvetica,sans-Serif" font-size="10.00">+</text>
<text text-anchor="start" x="17.5" y="-192.5" font-family="Helvetica,sans-Serif" font-size="10.00">void AddForce(const</text>
<text text-anchor="start" x="17.5" y="-181.5" font-family="Helvetica,sans-Serif" font-size="10.00"> Math::Vector3D &amp;force)</text>
<text text-anchor="start" x="4.5" y="-166.5" font-family="Helvetica,sans-Serif" font-size="10.00">+</text>
<text text-anchor="start" x="17.5" y="-166.5" font-family="Helvetica,sans-Serif" font-size="10.00">void ClearCollisionState()</text>
<text text-anchor="start" x="4.5" y="-151.5" font-family="Helvetica,sans-Serif" font-size="10.00">+</text>
<text text-anchor="start" x="17.5" y="-151.5" font-family="Helvetica,sans-Serif" font-size="10.00">BodyType GetBodyType</text>
<text text-anchor="start" x="17.5" y="-140.5" font-family="Helvetica,sans-Serif" font-size="10.00">() const</text>
<text text-anchor="start" x="4.5" y="-125.5" font-family="Helvetica,sans-Serif" font-size="10.00">+</text>
<text text-anchor="start" x="17.5" y="-125.5" font-family="Helvetica,sans-Serif" font-size="10.00">Math::Vector3D GetGravity</text>
<text text-anchor="start" x="17.5" y="-114.5" font-family="Helvetica,sans-Serif" font-size="10.00">() const</text>
<text text-anchor="start" x="4.5" y="-99.5" font-family="Helvetica,sans-Serif" font-size="10.00">+</text>
<text text-anchor="start" x="17.5" y="-99.5" font-family="Helvetica,sans-Serif" font-size="10.00">Math::Vector3D GetGround</text>
<text text-anchor="start" x="17.5" y="-88.5" font-family="Helvetica,sans-Serif" font-size="10.00">Normal() const</text>
<text text-anchor="start" x="4.5" y="-73.5" font-family="Helvetica,sans-Serif" font-size="10.00">+</text>
<text text-anchor="start" x="17.5" y="-73.5" font-family="Helvetica,sans-Serif" font-size="10.00">Math::Vector3D GetLastCollision</text>
<text text-anchor="start" x="17.5" y="-62.5" font-family="Helvetica,sans-Serif" font-size="10.00">Normal() const</text>
<text text-anchor="start" x="4.5" y="-47.5" font-family="Helvetica,sans-Serif" font-size="10.00">+</text>
<text text-anchor="start" x="17.5" y="-47.5" font-family="Helvetica,sans-Serif" font-size="10.00">float GetMass() const</text>
<text text-anchor="start" x="4.5" y="-32.5" font-family="Helvetica,sans-Serif" font-size="10.00">+</text>
<text text-anchor="start" x="17.5" y="-32.5" font-family="Helvetica,sans-Serif" font-size="10.00">float GetTerminalVelocity</text>
<text text-anchor="start" x="17.5" y="-21.5" font-family="Helvetica,sans-Serif" font-size="10.00">() const</text>
<text text-anchor="start" x="17.5" y="-6.5" font-family="Helvetica,sans-Serif" font-size="10.00">and 17 more...</text>
<polygon fill="#666666" stroke="#666666" points="0.5,-291.5 0.5,-291.5 179.5,-291.5 179.5,-291.5 0.5,-291.5"/>
<polygon fill="#666666" stroke="#666666" points="0.5,-276.5 0.5,-276.5 179.5,-276.5 179.5,-276.5 0.5,-276.5"/>
<polygon fill="none" stroke="#666666" points="0,0 0,-309 179,-309 179,0 0,0"/>
</a>
</g>
</g>
<!-- Node2 -->
<g id="Node000002" class="node">
<title>Node2</title>
<g id="a_Node000002"><a xlink:href="classSleak_1_1Component.html" target="_top" xlink:title=" ">
<polygon fill="white" stroke="transparent" points="164.5,-599 14.5,-599 14.5,-345 164.5,-345 164.5,-599"/>
<text text-anchor="start" x="44.5" y="-587" font-family="Helvetica,sans-Serif" font-size="10.00">Sleak::Component</text>
<text text-anchor="start" x="18.5" y="-572" font-family="Helvetica,sans-Serif" font-size="10.00">#</text>
<text text-anchor="start" x="31.5" y="-572" font-family="Helvetica,sans-Serif" font-size="10.00">bool bIsInitialized</text>
<text text-anchor="start" x="18.5" y="-557" font-family="Helvetica,sans-Serif" font-size="10.00">#</text>
<text text-anchor="start" x="31.5" y="-557" font-family="Helvetica,sans-Serif" font-size="10.00">GameObject * owner</text>
<text text-anchor="start" x="18.5" y="-542" font-family="Helvetica,sans-Serif" font-size="10.00">+</text>
<text text-anchor="start" x="31.5" y="-542" font-family="Helvetica,sans-Serif" font-size="10.00">Component(GameObject</text>
<text text-anchor="start" x="31.5" y="-531" font-family="Helvetica,sans-Serif" font-size="10.00"> *object)</text>
<text text-anchor="start" x="18.5" y="-516" font-family="Helvetica,sans-Serif" font-size="10.00">+</text>
<text text-anchor="start" x="31.5" y="-516" font-family="Helvetica,sans-Serif" font-size="10.00">virtual ~Component</text>
<text text-anchor="start" x="31.5" y="-505" font-family="Helvetica,sans-Serif" font-size="10.00">()=default</text>
<text text-anchor="start" x="18.5" y="-490" font-family="Helvetica,sans-Serif" font-size="10.00">+</text>
<text text-anchor="start" x="31.5" y="-490" font-family="Helvetica,sans-Serif" font-size="10.00">virtual void FixedUpdate</text>
<text text-anchor="start" x="31.5" y="-479" font-family="Helvetica,sans-Serif" font-size="10.00">(float fixedDeltaTime)</text>
<text text-anchor="start" x="18.5" y="-464" font-family="Helvetica,sans-Serif" font-size="10.00">+</text>
<text text-anchor="start" x="31.5" y="-464" font-family="Helvetica,sans-Serif" font-size="10.00">GameObject * GetOwner()</text>
<text text-anchor="start" x="18.5" y="-449" font-family="Helvetica,sans-Serif" font-size="10.00">+</text>
<text text-anchor="start" x="31.5" y="-449" font-family="Helvetica,sans-Serif" font-size="10.00">virtual bool Initialize()=0</text>
<text text-anchor="start" x="18.5" y="-434" font-family="Helvetica,sans-Serif" font-size="10.00">+</text>
<text text-anchor="start" x="31.5" y="-434" font-family="Helvetica,sans-Serif" font-size="10.00">virtual void LateUpdate</text>
<text text-anchor="start" x="31.5" y="-423" font-family="Helvetica,sans-Serif" font-size="10.00">(float deltaTime)</text>
<text text-anchor="start" x="18.5" y="-408" font-family="Helvetica,sans-Serif" font-size="10.00">+</text>
<text text-anchor="start" x="31.5" y="-408" font-family="Helvetica,sans-Serif" font-size="10.00">virtual void OnDestroy()</text>
<text text-anchor="start" x="18.5" y="-393" font-family="Helvetica,sans-Serif" font-size="10.00">+</text>
<text text-anchor="start" x="31.5" y="-393" font-family="Helvetica,sans-Serif" font-size="10.00">virtual void OnDisable()</text>
<text text-anchor="start" x="18.5" y="-378" font-family="Helvetica,sans-Serif" font-size="10.00">+</text>
<text text-anchor="start" x="31.5" y="-378" font-family="Helvetica,sans-Serif" font-size="10.00">virtual void OnEnable()</text>
<text text-anchor="start" x="18.5" y="-363" font-family="Helvetica,sans-Serif" font-size="10.00">+</text>
<text text-anchor="start" x="31.5" y="-363" font-family="Helvetica,sans-Serif" font-size="10.00">virtual void Update</text>
<text text-anchor="start" x="31.5" y="-352" font-family="Helvetica,sans-Serif" font-size="10.00">(float deltaTime)=0</text>
<polygon fill="#666666" stroke="#666666" points="14.5,-582 14.5,-582 164.5,-582 164.5,-582 14.5,-582"/>
<polygon fill="#666666" stroke="#666666" points="14.5,-552 14.5,-552 29.5,-552 29.5,-552 14.5,-552"/>
<polygon fill="#666666" stroke="#666666" points="29.5,-552 29.5,-552 164.5,-552 164.5,-552 29.5,-552"/>
<polygon fill="none" stroke="#666666" points="14.5,-345 14.5,-599 164.5,-599 164.5,-345 14.5,-345"/>
</a>
</g>
</g>
<!-- Node2&#45;&gt;Node1 -->
<g id="edge1_Node000001_Node000002" class="edge">
<title>Node2&#45;&gt;Node1</title>
<g id="a_edge1_Node000001_Node000002"><a xlink:title=" ">
<path fill="none" stroke="#63b8ff" d="M89.5,-334.7C89.5,-326.25 89.5,-317.73 89.5,-309.22"/>
<polygon fill="none" stroke="#63b8ff" points="86,-334.95 89.5,-344.95 93,-334.95 86,-334.95"/>
</a>
</g>
</g>
<!-- Node3 -->
<g id="Node000003" class="node">
<title>Node3</title>
<g id="a_Node000003"><a xlink:href="classSleak_1_1Object.html" target="_top" xlink:title=" ">
<polygon fill="white" stroke="transparent" points="162.5,-788 16.5,-788 16.5,-635 162.5,-635 162.5,-788"/>
<text text-anchor="start" x="57" y="-775.5" font-family="Helvetica,sans-Serif" font-size="10.00">Sleak::Object</text>
<text text-anchor="start" x="87.5" y="-760.5" font-family="Helvetica,sans-Serif" font-size="10.00"> </text>
<text text-anchor="start" x="20.5" y="-745.5" font-family="Helvetica,sans-Serif" font-size="10.00">+</text>
<text text-anchor="start" x="33.5" y="-745.5" font-family="Helvetica,sans-Serif" font-size="10.00">Object(const std::</text>
<text text-anchor="start" x="33.5" y="-734.5" font-family="Helvetica,sans-Serif" font-size="10.00">string &amp;name=&quot;Object&quot;)</text>
<text text-anchor="start" x="20.5" y="-719.5" font-family="Helvetica,sans-Serif" font-size="10.00">+</text>
<text text-anchor="start" x="33.5" y="-719.5" font-family="Helvetica,sans-Serif" font-size="10.00">virtual ~Object()=default</text>
<text text-anchor="start" x="20.5" y="-704.5" font-family="Helvetica,sans-Serif" font-size="10.00">+</text>
<text text-anchor="start" x="33.5" y="-704.5" font-family="Helvetica,sans-Serif" font-size="10.00">const std::string &amp;</text>
<text text-anchor="start" x="33.5" y="-693.5" font-family="Helvetica,sans-Serif" font-size="10.00"> GetName() const</text>
<text text-anchor="start" x="20.5" y="-678.5" font-family="Helvetica,sans-Serif" font-size="10.00">+</text>
<text text-anchor="start" x="33.5" y="-678.5" font-family="Helvetica,sans-Serif" font-size="10.00">uint64_t GetUniqueID</text>
<text text-anchor="start" x="33.5" y="-667.5" font-family="Helvetica,sans-Serif" font-size="10.00">() const</text>
<text text-anchor="start" x="20.5" y="-652.5" font-family="Helvetica,sans-Serif" font-size="10.00">+</text>
<text text-anchor="start" x="33.5" y="-652.5" font-family="Helvetica,sans-Serif" font-size="10.00">void SetName(const</text>
<text text-anchor="start" x="33.5" y="-641.5" font-family="Helvetica,sans-Serif" font-size="10.00"> std::string &amp;value)</text>
<polygon fill="#666666" stroke="#666666" points="16.5,-770.5 16.5,-770.5 162.5,-770.5 162.5,-770.5 16.5,-770.5"/>
<polygon fill="#666666" stroke="#666666" points="16.5,-755.5 16.5,-755.5 162.5,-755.5 162.5,-755.5 16.5,-755.5"/>
<polygon fill="none" stroke="#666666" points="16.5,-635 16.5,-788 162.5,-788 162.5,-635 16.5,-635"/>
</a>
</g>
</g>
<!-- Node3&#45;&gt;Node2 -->
<g id="edge2_Node000002_Node000003" class="edge">
<title>Node3&#45;&gt;Node2</title>
<g id="a_edge2_Node000002_Node000003"><a xlink:title=" ">
<path fill="none" stroke="#63b8ff" d="M89.5,-624.67C89.5,-616.34 89.5,-607.78 89.5,-599.17"/>
<polygon fill="none" stroke="#63b8ff" points="86,-624.7 89.5,-634.7 93,-624.7 86,-624.7"/>
</a>
</g>
</g>
</g>
</svg>

<g id="navigator" transform="translate(0 0)" fill="#404254">
  <rect fill="#f2f5e9" fill-opacity="0.5" stroke="#606060" stroke-width=".5" x="0" y="0" width="60" height="60"/>
  <use id="zoomplus" xlink:href="#zoomPlus" x="17" y="9" data-zoom="in"/>
  <use id="zoomminus" xlink:href="#zoomMin" x="42" y="9" data-zoom="out"/>
  <use id="reset" xlink:href="#resetDef" x="30" y="36" data-reset="true"/>
  <use id="arrowup" xlink:href="#arrowUp" x="0" y="0" data-pan-x="0" data-pan-y="-1"/>
  <use id="arrowright" xlink:href="#arrowRight" x="0" y="0" data-pan-x="1" data-pan-y="0"/>
  <use id="arrowdown" xlink:href="#arrowDown" x="0" y="0" data-pan-x="0" data-pan-y="1"/>
  <use id="arrowleft" xlink:href="#arrowLeft" x="0" y="0" data-pan-x="-1" data-pan-y="0"/>
</g>
<svg viewBox="0 0 15 15" width="100%" height="30px" preserveAspectRatio="xMaxYMin meet">
 <g id="arrow_out" transform="scale(0.3 0.3)">
  <a xlink:href="classSleak_1_1RigidbodyComponent__inherit__graph_org.svg" target="_base">
   <rect id="button" ry="5" rx="5" y="6" x="6" height="38" width="38"
        fill="#f2f5e9" fill-opacity="0.5" stroke="#606060" stroke-width="1.0"/>
   <path id="arrow"
     d="M 11.500037,31.436501 C 11.940474,20.09759 22.043105,11.32322 32.158766,21.979434 L 37.068811,17.246167 C 37.068811,17.246167 37.088388,32 37.088388,32 L 22.160133,31.978069 C 22.160133,31.978069 26.997745,27.140456 26.997745,27.140456 C 18.528582,18.264221 13.291696,25.230495 11.500037,31.436501 z"
     style="fill:#404040;"/>
  </a>
 </g>
</svg>

<style type='text/css'>
<![CDATA[
[data-mouse-over-selected='false'] { opacity: 0.7; }
[data-mouse-over-selected='true']  { opacity: 1.0; }
]]>
</style>
</svg>
