<?xml version="1.0" encoding="UTF-8" standalone="no"?>
<!DOCTYPE svg PUBLIC "-//W3C//DTD SVG 1.1//EN"
 "http://www.w3.org/Graphics/SVG/1.1/DTD/svg11.dtd">
<!-- Generated by graphviz version 2.43.0 (0)
 -->
<!-- Title: Sleak::RenderEngine::DrawIndexedCommand Pages: 1 -->
<!--zoomable 575 -->

<svg id="main" version="1.1" xmlns="http://www.w3.org/2000/svg" xmlns:xlink="http://www.w3.org/1999/xlink" xml:space="preserve">

<style type="text/css"><![CDATA[
.node, .edge {opacity: 0.7;}
.node.selected, .edge.selected {opacity: 1;}
.edge:hover path { stroke: red; }
.edge:hover polygon { stroke: red; fill: red; }
]]></style>

<defs>
  <circle id="rim" cx="0" cy="0" r="7"/>
  <circle id="rim2" cx="0" cy="0" r="3.5"/>
  <g id="zoomPlus">
    <use xlink:href="#rim" fill="#404040"><set attributeName="fill" to="#808080" begin="zoomplus.mouseover" end="zoomplus.mouseout"/></use>
    <path d="M-4,0h8M0,-4v8" fill="none" stroke="white" stroke-width="1.5" pointer-events="none"/>
  </g>
  <g id="zoomMin">
    <use xlink:href="#rim" fill="#404040"><set attributeName="fill" to="#808080" begin="zoomminus.mouseover" end="zoomminus.mouseout"/></use>
    <path d="M-4,0h8" fill="none" stroke="white" stroke-width="1.5" pointer-events="none"/>
  </g>
  <g id="arrowUp" transform="translate(30 24)">
    <use xlink:href="#rim"/>
    <path pointer-events="none" fill="none" stroke="white" stroke-width="1.5" d="M0,-3.0v7 M-2.5,-0.5L0,-3.0L2.5,-0.5"/>
  </g>
  <g id="arrowRight" transform="rotate(90) translate(36 -43)">
    <use xlink:href="#rim"/>
    <path pointer-events="none" fill="none" stroke="white" stroke-width="1.5" d="M0,-3.0v7 M-2.5,-0.5L0,-3.0L2.5,-0.5"/>
  </g>
  <g id="arrowDown" transform="rotate(180) translate(-30 -48)">
    <use xlink:href="#rim"/>
    <path pointer-events="none" fill="none" stroke="white" stroke-width="1.5" d="M0,-3.0v7 M-2.5,-0.5L0,-3.0L2.5,-0.5"/>
  </g>
  <g id="arrowLeft" transform="rotate(270) translate(-36 17)">
    <use xlink:href="#rim"/>
    <path pointer-events="none" fill="none" stroke="white" stroke-width="1.5" d="M0,-3.0v7 M-2.5,-0.5L0,-3.0L2.5,-0.5"/>
  </g>
  <g id="resetDef">
    <use xlink:href="#rim2" fill="#404040"><set attributeName="fill" to="#808080" begin="reset.mouseover" end="reset.mouseout"/></use>
  </g>
</defs>
<script type="application/ecmascript" xlink:href="svg.min.js"/>
<svg id="graph" class="graph" data-view-width="237" data-view-height="575" data-section-id="dynsection-0">
<g id="viewport">
<title>Sleak::RenderEngine::DrawIndexedCommand</title>
<!-- Node1 -->
<g id="Node000001" class="node">
<title>Node1</title>
<g id="a_Node000001"><a xlink:title="Indexed draw command with its vertex, index, and constant buffers.">
<polygon fill="#999999" stroke="transparent" points="229,-252 0,-252 0,0 229,0 229,-252"/>
<text text-anchor="start" x="54.5" y="-240" font-family="Helvetica,sans-Serif" font-size="10.00">Sleak::RenderEngine</text>
<text text-anchor="start" x="54.5" y="-229" font-family="Helvetica,sans-Serif" font-size="10.00">::DrawIndexedCommand</text>
<text text-anchor="start" x="113" y="-214" font-family="Helvetica,sans-Serif" font-size="10.00"> </text>
<text text-anchor="start" x="4.5" y="-199" font-family="Helvetica,sans-Serif" font-size="10.00">+</text>
<text text-anchor="start" x="17.5" y="-199" font-family="Helvetica,sans-Serif" font-size="10.00">DrawIndexedCommand</text>
<text text-anchor="start" x="17.5" y="-188" font-family="Helvetica,sans-Serif" font-size="10.00">(RefPtr&lt; BufferBase</text>
<text text-anchor="start" x="17.5" y="-177" font-family="Helvetica,sans-Serif" font-size="10.00"> &gt; vertexBuffer, RefPtr</text>
<text text-anchor="start" x="17.5" y="-166" font-family="Helvetica,sans-Serif" font-size="10.00">&lt; BufferBase &gt; indexBuffer,</text>
<text text-anchor="start" x="17.5" y="-155" font-family="Helvetica,sans-Serif" font-size="10.00"> List&lt; RefPtr&lt; BufferBase</text>
<text text-anchor="start" x="17.5" y="-144" font-family="Helvetica,sans-Serif" font-size="10.00"> &gt; &gt; constantBuffers, uint32</text>
<text text-anchor="start" x="17.5" y="-133" font-family="Helvetica,sans-Serif" font-size="10.00">_t indexCount, uint32_t startIndexLocation</text>
<text text-anchor="start" x="17.5" y="-122" font-family="Helvetica,sans-Serif" font-size="10.00">=0, int32_t baseVertexLocation=0)</text>
<text text-anchor="start" x="4.5" y="-107" font-family="Helvetica,sans-Serif" font-size="10.00">+</text>
<text text-anchor="start" x="17.5" y="-107" font-family="Helvetica,sans-Serif" font-size="10.00">void Execute(RenderContext</text>
<text text-anchor="start" x="17.5" y="-96" font-family="Helvetica,sans-Serif" font-size="10.00"> *context) override</text>
<text text-anchor="start" x="4.5" y="-81" font-family="Helvetica,sans-Serif" font-size="10.00">+</text>
<text text-anchor="start" x="17.5" y="-81" font-family="Helvetica,sans-Serif" font-size="10.00">void ExecuteShadow</text>
<text text-anchor="start" x="17.5" y="-70" font-family="Helvetica,sans-Serif" font-size="10.00">(RenderContext *context)</text>
<text text-anchor="start" x="17.5" y="-59" font-family="Helvetica,sans-Serif" font-size="10.00"> override</text>
<text text-anchor="start" x="4.5" y="-44" font-family="Helvetica,sans-Serif" font-size="10.00">+</text>
<text text-anchor="start" x="17.5" y="-44" font-family="Helvetica,sans-Serif" font-size="10.00">CommandType GetType</text>
<text text-anchor="start" x="17.5" y="-33" font-family="Helvetica,sans-Serif" font-size="10.00">() const override</text>
<text text-anchor="start" x="4.5" y="-18" font-family="Helvetica,sans-Serif" font-size="10.00">+</text>
<text text-anchor="start" x="17.5" y="-18" font-family="Helvetica,sans-Serif" font-size="10.00">bool IsSkinned() const</text>
<text text-anchor="start" x="17.5" y="-7" font-family="Helvetica,sans-Serif" font-size="10.00"> override</text>
<polygon fill="#666666" stroke="#666666" points="0.5,-224 0.5,-224 229.5,-224 229.5,-224 0.5,-224"/>
<polygon fill="#666666" stroke="#666666" points="0.5,-209 0.5,-209 229.5,-209 229.5,-209 0.5,-209"/>
<polygon fill="none" stroke="#666666" points="0,0 0,-252 229,-252 229,0 0,0"/>
</a>
</g>
</g>
<!-- Node2 -->
<g id="Node000002" class="node">
<title>Node2</title>
<g id="a_Node000002"><a xlink:href="classSleak_1_1RenderEngine_1_1RenderCommandBase.html" target="_top" xlink:title="One recorded draw plus the state it needs to replay into a command list.">
<polygon fill="white" stroke="transparent" points="201,-567 28,-567 28,-288 201,-288 201,-567"/>
<text text-anchor="start" x="57.5" y="-554.5" font-family="Helvetica,sans-Serif" font-size="10.00">Sleak::RenderEngine</text>
<text text-anchor="start" x="57.5" y="-543.5" font-family="Helvetica,sans-Serif" font-size="10.00">::RenderCommandBase</text>
<text text-anchor="start" x="113" y="-528.5" font-family="Helvetica,sans-Serif" font-size="10.00"> </text>
<text text-anchor="start" x="32.5" y="-513.5" font-family="Helvetica,sans-Serif" font-size="10.00">+</text>
<text text-anchor="start" x="45.5" y="-513.5" font-family="Helvetica,sans-Serif" font-size="10.00">virtual ~RenderCommandBase</text>
<text text-anchor="start" x="45.5" y="-502.5" font-family="Helvetica,sans-Serif" font-size="10.00">()=default</text>
<text text-anchor="start" x="32.5" y="-487.5" font-family="Helvetica,sans-Serif" font-size="10.00">+</text>
<text text-anchor="start" x="45.5" y="-487.5" font-family="Helvetica,sans-Serif" font-size="10.00">bool CastsShadow()</text>
<text text-anchor="start" x="45.5" y="-476.5" font-family="Helvetica,sans-Serif" font-size="10.00"> const</text>
<text text-anchor="start" x="32.5" y="-461.5" font-family="Helvetica,sans-Serif" font-size="10.00">+</text>
<text text-anchor="start" x="45.5" y="-461.5" font-family="Helvetica,sans-Serif" font-size="10.00">virtual void Execute</text>
<text text-anchor="start" x="45.5" y="-450.5" font-family="Helvetica,sans-Serif" font-size="10.00">(RenderContext *context)=0</text>
<text text-anchor="start" x="32.5" y="-435.5" font-family="Helvetica,sans-Serif" font-size="10.00">+</text>
<text text-anchor="start" x="45.5" y="-435.5" font-family="Helvetica,sans-Serif" font-size="10.00">virtual void ExecuteShadow</text>
<text text-anchor="start" x="45.5" y="-424.5" font-family="Helvetica,sans-Serif" font-size="10.00">(RenderContext *context)</text>
<text text-anchor="start" x="32.5" y="-409.5" font-family="Helvetica,sans-Serif" font-size="10.00">+</text>
<text text-anchor="start" x="45.5" y="-409.5" font-family="Helvetica,sans-Serif" font-size="10.00">uint32_t GetOwnerObjectID</text>
<text text-anchor="start" x="45.5" y="-398.5" font-family="Helvetica,sans-Serif" font-size="10.00">() const</text>
<text text-anchor="start" x="32.5" y="-383.5" font-family="Helvetica,sans-Serif" font-size="10.00">+</text>
<text text-anchor="start" x="45.5" y="-383.5" font-family="Helvetica,sans-Serif" font-size="10.00">virtual CommandType</text>
<text text-anchor="start" x="45.5" y="-372.5" font-family="Helvetica,sans-Serif" font-size="10.00"> GetType() const =0</text>
<text text-anchor="start" x="32.5" y="-357.5" font-family="Helvetica,sans-Serif" font-size="10.00">+</text>
<text text-anchor="start" x="45.5" y="-357.5" font-family="Helvetica,sans-Serif" font-size="10.00">virtual bool IsSkinned</text>
<text text-anchor="start" x="45.5" y="-346.5" font-family="Helvetica,sans-Serif" font-size="10.00">() const</text>
<text text-anchor="start" x="32.5" y="-331.5" font-family="Helvetica,sans-Serif" font-size="10.00">+</text>
<text text-anchor="start" x="45.5" y="-331.5" font-family="Helvetica,sans-Serif" font-size="10.00">void SetCastsShadow</text>
<text text-anchor="start" x="45.5" y="-320.5" font-family="Helvetica,sans-Serif" font-size="10.00">(bool v)</text>
<text text-anchor="start" x="32.5" y="-305.5" font-family="Helvetica,sans-Serif" font-size="10.00">+</text>
<text text-anchor="start" x="45.5" y="-305.5" font-family="Helvetica,sans-Serif" font-size="10.00">void SetOwnerObjectID</text>
<text text-anchor="start" x="45.5" y="-294.5" font-family="Helvetica,sans-Serif" font-size="10.00">(uint32_t id)</text>
<polygon fill="#666666" stroke="#666666" points="28.5,-538.5 28.5,-538.5 201.5,-538.5 201.5,-538.5 28.5,-538.5"/>
<polygon fill="#666666" stroke="#666666" points="28.5,-523.5 28.5,-523.5 201.5,-523.5 201.5,-523.5 28.5,-523.5"/>
<polygon fill="none" stroke="#666666" points="28,-288 28,-567 201,-567 201,-288 28,-288"/>
</a>
</g>
</g>
<!-- Node2&#45;&gt;Node1 -->
<g id="edge1_Node000001_Node000002" class="edge">
<title>Node2&#45;&gt;Node1</title>
<g id="a_edge1_Node000001_Node000002"><a xlink:title=" ">
<path fill="none" stroke="#63b8ff" d="M114.5,-277.48C114.5,-269.08 114.5,-260.68 114.5,-252.38"/>
<polygon fill="none" stroke="#63b8ff" points="111,-277.71 114.5,-287.71 118,-277.71 111,-277.71"/>
</a>
</g>
</g>
</g>
</svg>

<g id="navigator" transform="translate(0 0)" fill="#404254">
  <rect fill="#f2f5e9" fill-opacity="0.5" stroke="#606060" stroke-width=".5" x="0" y="0" width="60" height="60"/>
  <use id="zoomplus" xlink:href="#zoomPlus" x="17" y="9" data-zoom="in"/>
  <use id="zoomminus" xlink:href="#zoomMin" x="42" y="9" data-zoom="out"/>
  <use id="reset" xlink:href="#resetDef" x="30" y="36" data-reset="true"/>
  <use id="arrowup" xlink:href="#arrowUp" x="0" y="0" data-pan-x="0" data-pan-y="-1"/>
  <use id="arrowright" xlink:href="#arrowRight" x="0" y="0" data-pan-x="1" data-pan-y="0"/>
  <use id="arrowdown" xlink:href="#arrowDown" x="0" y="0" data-pan-x="0" data-pan-y="1"/>
  <use id="arrowleft" xlink:href="#arrowLeft" x="0" y="0" data-pan-x="-1" data-pan-y="0"/>
</g>
<svg viewBox="0 0 15 15" width="100%" height="30px" preserveAspectRatio="xMaxYMin meet">
 <g id="arrow_out" transform="scale(0.3 0.3)">
  <a xlink:href="classSleak_1_1RenderEngine_1_1DrawIndexedCommand__inherit__graph_org.svg" target="_base">
   <rect id="button" ry="5" rx="5" y="6" x="6" height="38" width="38"
        fill="#f2f5e9" fill-opacity="0.5" stroke="#606060" stroke-width="1.0"/>
   <path id="arrow"
     d="M 11.500037,31.436501 C 11.940474,20.09759 22.043105,11.32322 32.158766,21.979434 L 37.068811,17.246167 C 37.068811,17.246167 37.088388,32 37.088388,32 L 22.160133,31.978069 C 22.160133,31.978069 26.997745,27.140456 26.997745,27.140456 C 18.528582,18.264221 13.291696,25.230495 11.500037,31.436501 z"
     style="fill:#404040;"/>
  </a>
 </g>
</svg>

<style type='text/css'>
<![CDATA[
[data-mouse-over-selected='false'] { opacity: 0.7; }
[data-mouse-over-selected='true']  { opacity: 1.0; }
]]>
</style>
</svg>
