<?xml version="1.0" encoding="UTF-8" standalone="no"?>
<!DOCTYPE svg PUBLIC "-//W3C//DTD SVG 1.1//EN"
 "http://www.w3.org/Graphics/SVG/1.1/DTD/svg11.dtd">
<!-- Generated by graphviz version 2.43.0 (0)
 -->
<!-- Title: Sleak::RenderEngine::OpenGLBuffer Pages: 1 -->
<svg width="186pt" height="939pt"
 viewBox="0.00 0.00 186.00 939.00" xmlns="http://www.w3.org/2000/svg" xmlns:xlink="http://www.w3.org/1999/xlink">
<g id="page0,1_graph0" class="graph" transform="scale(1 1) rotate(0) translate(4 935)">
<title>Sleak::RenderEngine::OpenGLBuffer</title>
<!-- Node1 -->
<g id="Node000001" class="node">
<title>Node1</title>
<g id="a_Node000001"><a xlink:title="OpenGL VBO/EBO/UBO wrapper; target is derived from BufferType at construction.">
<polygon fill="#999999" stroke="transparent" points="163,-265 15,-265 15,0 163,0 163,-265"/>
<text text-anchor="start" x="38.5" y="-252.5" font-family="Helvetica,sans-Serif" font-size="10.00">Sleak::RenderEngine</text>
<text text-anchor="start" x="52" y="-241.5" font-family="Helvetica,sans-Serif" font-size="10.00">::OpenGLBuffer</text>
<text text-anchor="start" x="87" y="-226.5" font-family="Helvetica,sans-Serif" font-size="10.00"> </text>
<text text-anchor="start" x="19" y="-211.5" font-family="Helvetica,sans-Serif" font-size="10.00">+</text>
<text text-anchor="start" x="32" y="-211.5" font-family="Helvetica,sans-Serif" font-size="10.00">OpenGLBuffer(uint32</text>
<text text-anchor="start" x="32" y="-200.5" font-family="Helvetica,sans-Serif" font-size="10.00">_t size, BufferType type)</text>
<text text-anchor="start" x="19" y="-185.5" font-family="Helvetica,sans-Serif" font-size="10.00">+</text>
<text text-anchor="start" x="32" y="-185.5" font-family="Helvetica,sans-Serif" font-size="10.00">~OpenGLBuffer() override</text>
<text text-anchor="start" x="19" y="-170.5" font-family="Helvetica,sans-Serif" font-size="10.00">+</text>
<text text-anchor="start" x="32" y="-170.5" font-family="Helvetica,sans-Serif" font-size="10.00">void Cleanup() override</text>
<text text-anchor="start" x="19" y="-155.5" font-family="Helvetica,sans-Serif" font-size="10.00">+</text>
<text text-anchor="start" x="32" y="-155.5" font-family="Helvetica,sans-Serif" font-size="10.00">void * GetData() override</text>
<text text-anchor="start" x="19" y="-140.5" font-family="Helvetica,sans-Serif" font-size="10.00">+</text>
<text text-anchor="start" x="32" y="-140.5" font-family="Helvetica,sans-Serif" font-size="10.00">GLuint GetGLBuffer</text>
<text text-anchor="start" x="32" y="-129.5" font-family="Helvetica,sans-Serif" font-size="10.00">() const</text>
<text text-anchor="start" x="19" y="-114.5" font-family="Helvetica,sans-Serif" font-size="10.00">+</text>
<text text-anchor="start" x="32" y="-114.5" font-family="Helvetica,sans-Serif" font-size="10.00">GLenum GetTarget()</text>
<text text-anchor="start" x="32" y="-103.5" font-family="Helvetica,sans-Serif" font-size="10.00"> const</text>
<text text-anchor="start" x="19" y="-88.5" font-family="Helvetica,sans-Serif" font-size="10.00">+</text>
<text text-anchor="start" x="32" y="-88.5" font-family="Helvetica,sans-Serif" font-size="10.00">bool Initialize(void</text>
<text text-anchor="start" x="32" y="-77.5" font-family="Helvetica,sans-Serif" font-size="10.00"> *data) override</text>
<text text-anchor="start" x="19" y="-62.5" font-family="Helvetica,sans-Serif" font-size="10.00">+</text>
<text text-anchor="start" x="32" y="-62.5" font-family="Helvetica,sans-Serif" font-size="10.00">bool Map() override</text>
<text text-anchor="start" x="19" y="-47.5" font-family="Helvetica,sans-Serif" font-size="10.00">+</text>
<text text-anchor="start" x="32" y="-47.5" font-family="Helvetica,sans-Serif" font-size="10.00">void Unmap() override</text>
<text text-anchor="start" x="19" y="-32.5" font-family="Helvetica,sans-Serif" font-size="10.00">+</text>
<text text-anchor="start" x="32" y="-32.5" font-family="Helvetica,sans-Serif" font-size="10.00">void Update() override</text>
<text text-anchor="start" x="19" y="-17.5" font-family="Helvetica,sans-Serif" font-size="10.00">+</text>
<text text-anchor="start" x="32" y="-17.5" font-family="Helvetica,sans-Serif" font-size="10.00">void Update(void *data,</text>
<text text-anchor="start" x="32" y="-6.5" font-family="Helvetica,sans-Serif" font-size="10.00"> size_t size) override</text>
<polygon fill="#666666" stroke="#666666" points="15,-236.5 15,-236.5 163,-236.5 163,-236.5 15,-236.5"/>
<polygon fill="#666666" stroke="#666666" points="15,-221.5 15,-221.5 163,-221.5 163,-221.5 15,-221.5"/>
<polygon fill="none" stroke="#666666" points="15,0 15,-265 163,-265 163,0 15,0"/>
</a>
</g>
</g>
<!-- Node2 -->
<g id="Node000002" class="node">
<title>Node2</title>
<g id="a_Node000002"><a xlink:href="classSleak_1_1RenderEngine_1_1BufferBase.html" target="_top" xlink:title="Backend&#45;agnostic GPU buffer: vertex, index, constant, or resource view target.">
<polygon fill="white" stroke="transparent" points="178,-764 0,-764 0,-301 178,-301 178,-764"/>
<text text-anchor="start" x="38.5" y="-751.5" font-family="Helvetica,sans-Serif" font-size="10.00">Sleak::RenderEngine</text>
<text text-anchor="start" x="59" y="-740.5" font-family="Helvetica,sans-Serif" font-size="10.00">::BufferBase</text>
<text text-anchor="start" x="4" y="-725.5" font-family="Helvetica,sans-Serif" font-size="10.00">#</text>
<text text-anchor="start" x="17" y="-725.5" font-family="Helvetica,sans-Serif" font-size="10.00">bool bIsMapped</text>
<text text-anchor="start" x="4" y="-710.5" font-family="Helvetica,sans-Serif" font-size="10.00">#</text>
<text text-anchor="start" x="17" y="-710.5" font-family="Helvetica,sans-Serif" font-size="10.00">void * Data</text>
<text text-anchor="start" x="4" y="-695.5" font-family="Helvetica,sans-Serif" font-size="10.00">#</text>
<text text-anchor="start" x="17" y="-695.5" font-family="Helvetica,sans-Serif" font-size="10.00">const void * m_cpuShadowCopy</text>
<text text-anchor="start" x="4" y="-680.5" font-family="Helvetica,sans-Serif" font-size="10.00">#</text>
<text text-anchor="start" x="17" y="-680.5" font-family="Helvetica,sans-Serif" font-size="10.00">size_t m_cpuShadowCopySize</text>
<text text-anchor="start" x="4" y="-665.5" font-family="Helvetica,sans-Serif" font-size="10.00">#</text>
<text text-anchor="start" x="17" y="-665.5" font-family="Helvetica,sans-Serif" font-size="10.00">char m_cpuShadowStorage</text>
<text text-anchor="start" x="4" y="-650.5" font-family="Helvetica,sans-Serif" font-size="10.00">#</text>
<text text-anchor="start" x="17" y="-650.5" font-family="Helvetica,sans-Serif" font-size="10.00">uint32_t m_vertexFormat</text>
<text text-anchor="start" x="4" y="-635.5" font-family="Helvetica,sans-Serif" font-size="10.00">#</text>
<text text-anchor="start" x="17" y="-635.5" font-family="Helvetica,sans-Serif" font-size="10.00">size_t Size</text>
<text text-anchor="start" x="4" y="-620.5" font-family="Helvetica,sans-Serif" font-size="10.00">#</text>
<text text-anchor="start" x="17" y="-620.5" font-family="Helvetica,sans-Serif" font-size="10.00">int Slot</text>
<text text-anchor="start" x="4" y="-605.5" font-family="Helvetica,sans-Serif" font-size="10.00">#</text>
<text text-anchor="start" x="17" y="-605.5" font-family="Helvetica,sans-Serif" font-size="10.00">BufferType Type</text>
<text text-anchor="start" x="4" y="-590.5" font-family="Helvetica,sans-Serif" font-size="10.00">+</text>
<text text-anchor="start" x="17" y="-590.5" font-family="Helvetica,sans-Serif" font-size="10.00">const void * GetCPUShadow</text>
<text text-anchor="start" x="17" y="-579.5" font-family="Helvetica,sans-Serif" font-size="10.00">Copy() const</text>
<text text-anchor="start" x="4" y="-564.5" font-family="Helvetica,sans-Serif" font-size="10.00">+</text>
<text text-anchor="start" x="17" y="-564.5" font-family="Helvetica,sans-Serif" font-size="10.00">size_t GetCPUShadowCopySize</text>
<text text-anchor="start" x="17" y="-553.5" font-family="Helvetica,sans-Serif" font-size="10.00">() const</text>
<text text-anchor="start" x="4" y="-538.5" font-family="Helvetica,sans-Serif" font-size="10.00">+</text>
<text text-anchor="start" x="17" y="-538.5" font-family="Helvetica,sans-Serif" font-size="10.00">virtual void * GetData()=0</text>
<text text-anchor="start" x="4" y="-523.5" font-family="Helvetica,sans-Serif" font-size="10.00">+</text>
<text text-anchor="start" x="17" y="-523.5" font-family="Helvetica,sans-Serif" font-size="10.00">size_t GetSize()</text>
<text text-anchor="start" x="4" y="-508.5" font-family="Helvetica,sans-Serif" font-size="10.00">+</text>
<text text-anchor="start" x="17" y="-508.5" font-family="Helvetica,sans-Serif" font-size="10.00">int GetSlot() const</text>
<text text-anchor="start" x="4" y="-493.5" font-family="Helvetica,sans-Serif" font-size="10.00">+</text>
<text text-anchor="start" x="17" y="-493.5" font-family="Helvetica,sans-Serif" font-size="10.00">BufferType GetType()</text>
<text text-anchor="start" x="4" y="-478.5" font-family="Helvetica,sans-Serif" font-size="10.00">+</text>
<text text-anchor="start" x="17" y="-478.5" font-family="Helvetica,sans-Serif" font-size="10.00">uint32_t GetVertexFormat</text>
<text text-anchor="start" x="17" y="-467.5" font-family="Helvetica,sans-Serif" font-size="10.00">() const</text>
<text text-anchor="start" x="4" y="-452.5" font-family="Helvetica,sans-Serif" font-size="10.00">+</text>
<text text-anchor="start" x="17" y="-452.5" font-family="Helvetica,sans-Serif" font-size="10.00">virtual bool Map()=0</text>
<text text-anchor="start" x="4" y="-437.5" font-family="Helvetica,sans-Serif" font-size="10.00">+</text>
<text text-anchor="start" x="17" y="-437.5" font-family="Helvetica,sans-Serif" font-size="10.00">void SetSlot(int slot)</text>
<text text-anchor="start" x="4" y="-422.5" font-family="Helvetica,sans-Serif" font-size="10.00">+</text>
<text text-anchor="start" x="17" y="-422.5" font-family="Helvetica,sans-Serif" font-size="10.00">void SetVertexFormat</text>
<text text-anchor="start" x="17" y="-411.5" font-family="Helvetica,sans-Serif" font-size="10.00">(uint32_t handle)</text>
<text text-anchor="start" x="4" y="-396.5" font-family="Helvetica,sans-Serif" font-size="10.00">+</text>
<text text-anchor="start" x="17" y="-396.5" font-family="Helvetica,sans-Serif" font-size="10.00">void StoreCPUShadowCopy</text>
<text text-anchor="start" x="17" y="-385.5" font-family="Helvetica,sans-Serif" font-size="10.00">(const void *data, size</text>
<text text-anchor="start" x="17" y="-374.5" font-family="Helvetica,sans-Serif" font-size="10.00">_t size)</text>
<text text-anchor="start" x="4" y="-359.5" font-family="Helvetica,sans-Serif" font-size="10.00">+</text>
<text text-anchor="start" x="17" y="-359.5" font-family="Helvetica,sans-Serif" font-size="10.00">virtual void Unmap()=0</text>
<text text-anchor="start" x="4" y="-344.5" font-family="Helvetica,sans-Serif" font-size="10.00">+</text>
<text text-anchor="start" x="17" y="-344.5" font-family="Helvetica,sans-Serif" font-size="10.00">virtual void Update()=0</text>
<text text-anchor="start" x="4" y="-329.5" font-family="Helvetica,sans-Serif" font-size="10.00">+</text>
<text text-anchor="start" x="17" y="-329.5" font-family="Helvetica,sans-Serif" font-size="10.00">virtual void Update</text>
<text text-anchor="start" x="17" y="-318.5" font-family="Helvetica,sans-Serif" font-size="10.00">(void *data, size_t</text>
<text text-anchor="start" x="17" y="-307.5" font-family="Helvetica,sans-Serif" font-size="10.00"> size)=0</text>
<polygon fill="#666666" stroke="#666666" points="0,-735.5 0,-735.5 178,-735.5 178,-735.5 0,-735.5"/>
<polygon fill="#666666" stroke="#666666" points="0,-600.5 0,-600.5 15,-600.5 15,-600.5 0,-600.5"/>
<polygon fill="#666666" stroke="#666666" points="15,-600.5 15,-600.5 178,-600.5 178,-600.5 15,-600.5"/>
<polygon fill="none" stroke="#666666" points="0,-301 0,-764 178,-764 178,-301 0,-301"/>
</a>
</g>
</g>
<!-- Node2&#45;&gt;Node1 -->
<g id="edge1_Node000001_Node000002" class="edge">
<title>Node2&#45;&gt;Node1</title>
<g id="a_edge1_Node000001_Node000002"><a xlink:title=" ">
<path fill="none" stroke="#63b8ff" d="M89,-290.75C89,-282.18 89,-273.73 89,-265.45"/>
<polygon fill="none" stroke="#63b8ff" points="85.5,-290.85 89,-300.85 92.5,-290.85 85.5,-290.85"/>
</a>
</g>
</g>
<!-- Node3 -->
<g id="Node000003" class="node">
<title>Node3</title>
<g id="a_Node000003"><a xlink:href="classSleak_1_1ResourceBase.html" target="_top" xlink:title="Common lifecycle contract for GPU&#45;backed resources: init, per&#45;frame update, teardown.">
<polygon fill="white" stroke="transparent" points="160,-931 18,-931 18,-800 160,-800 160,-931"/>
<text text-anchor="start" x="37.5" y="-918.5" font-family="Helvetica,sans-Serif" font-size="10.00">Sleak::ResourceBase</text>
<text text-anchor="start" x="22" y="-903.5" font-family="Helvetica,sans-Serif" font-size="10.00">#</text>
<text text-anchor="start" x="35" y="-903.5" font-family="Helvetica,sans-Serif" font-size="10.00">bool bIsInitialized</text>
<text text-anchor="start" x="22" y="-888.5" font-family="Helvetica,sans-Serif" font-size="10.00">#</text>
<text text-anchor="start" x="35" y="-888.5" font-family="Helvetica,sans-Serif" font-size="10.00">std::string Name</text>
<text text-anchor="start" x="22" y="-873.5" font-family="Helvetica,sans-Serif" font-size="10.00">+</text>
<text text-anchor="start" x="35" y="-873.5" font-family="Helvetica,sans-Serif" font-size="10.00">virtual ~ResourceBase</text>
<text text-anchor="start" x="35" y="-862.5" font-family="Helvetica,sans-Serif" font-size="10.00">()=default</text>
<text text-anchor="start" x="22" y="-847.5" font-family="Helvetica,sans-Serif" font-size="10.00">+</text>
<text text-anchor="start" x="35" y="-847.5" font-family="Helvetica,sans-Serif" font-size="10.00">virtual void Cleanup()=0</text>
<text text-anchor="start" x="22" y="-832.5" font-family="Helvetica,sans-Serif" font-size="10.00">+</text>
<text text-anchor="start" x="35" y="-832.5" font-family="Helvetica,sans-Serif" font-size="10.00">virtual bool Initialize</text>
<text text-anchor="start" x="35" y="-821.5" font-family="Helvetica,sans-Serif" font-size="10.00">(void *Data)=0</text>
<text text-anchor="start" x="22" y="-806.5" font-family="Helvetica,sans-Serif" font-size="10.00">+</text>
<text text-anchor="start" x="35" y="-806.5" font-family="Helvetica,sans-Serif" font-size="10.00">virtual void Update()=0</text>
<polygon fill="#666666" stroke="#666666" points="18,-913.5 18,-913.5 160,-913.5 160,-913.5 18,-913.5"/>
<polygon fill="#666666" stroke="#666666" points="18,-883.5 18,-883.5 33,-883.5 33,-883.5 18,-883.5"/>
<polygon fill="#666666" stroke="#666666" points="33,-883.5 33,-883.5 160,-883.5 160,-883.5 33,-883.5"/>
<polygon fill="none" stroke="#666666" points="18,-800 18,-931 160,-931 160,-800 18,-800"/>
</a>
</g>
</g>
<!-- Node3&#45;&gt;Node2 -->
<g id="edge2_Node000002_Node000003" class="edge">
<title>Node3&#45;&gt;Node2</title>
<g id="a_edge2_Node000002_Node000003"><a xlink:title=" ">
<path fill="none" stroke="#63b8ff" d="M89,-789.76C89,-781.57 89,-772.95 89,-764.03"/>
<polygon fill="none" stroke="#63b8ff" points="85.5,-789.89 89,-799.89 92.5,-789.89 85.5,-789.89"/>
</a>
</g>
</g>
</g>
</svg>
