<?xml version="1.0" encoding="UTF-8" standalone="no"?>
<!DOCTYPE svg PUBLIC "-//W3C//DTD SVG 1.1//EN"
 "http://www.w3.org/Graphics/SVG/1.1/DTD/svg11.dtd">
<!-- Generated by graphviz version 2.43.0 (0)
 -->
<!-- Title: Sleak::RenderEngine::DirectX11Shader Pages: 1 -->
<svg width="194pt" height="457pt"
 viewBox="0.00 0.00 194.00 457.00" xmlns="http://www.w3.org/2000/svg" xmlns:xlink="http://www.w3.org/1999/xlink">
<g id="page0,1_graph0" class="graph" transform="scale(1 1) rotate(0) translate(4 453)">
<title>Sleak::RenderEngine::DirectX11Shader</title>
<!-- Node1 -->
<g id="Node000001" class="node">
<title>Node1</title>
<g id="a_Node000001"><a xlink:title="D3D11 vertex+pixel shader pair, compiled from HLSL and paired with an input layout.">
<polygon fill="#999999" stroke="transparent" points="181.5,-275 4.5,-275 4.5,0 181.5,0 181.5,-275"/>
<text text-anchor="start" x="43" y="-262.5" font-family="Helvetica,sans-Serif" font-size="10.00">Sleak::RenderEngine</text>
<text text-anchor="start" x="49.5" y="-251.5" font-family="Helvetica,sans-Serif" font-size="10.00">::DirectX11Shader</text>
<text text-anchor="start" x="91.5" y="-236.5" font-family="Helvetica,sans-Serif" font-size="10.00"> </text>
<text text-anchor="start" x="9" y="-221.5" font-family="Helvetica,sans-Serif" font-size="10.00">+</text>
<text text-anchor="start" x="22" y="-221.5" font-family="Helvetica,sans-Serif" font-size="10.00">DirectX11Shader(ID3D11Device</text>
<text text-anchor="start" x="22" y="-210.5" font-family="Helvetica,sans-Serif" font-size="10.00"> *device)</text>
<text text-anchor="start" x="9" y="-195.5" font-family="Helvetica,sans-Serif" font-size="10.00">+</text>
<text text-anchor="start" x="22" y="-195.5" font-family="Helvetica,sans-Serif" font-size="10.00">~DirectX11Shader()</text>
<text text-anchor="start" x="22" y="-184.5" font-family="Helvetica,sans-Serif" font-size="10.00"> override</text>
<text text-anchor="start" x="9" y="-169.5" font-family="Helvetica,sans-Serif" font-size="10.00">+</text>
<text text-anchor="start" x="22" y="-169.5" font-family="Helvetica,sans-Serif" font-size="10.00">void bind() override</text>
<text text-anchor="start" x="9" y="-154.5" font-family="Helvetica,sans-Serif" font-size="10.00">+</text>
<text text-anchor="start" x="22" y="-154.5" font-family="Helvetica,sans-Serif" font-size="10.00">bool compile(const</text>
<text text-anchor="start" x="22" y="-143.5" font-family="Helvetica,sans-Serif" font-size="10.00"> std::string &amp;shaderPath)</text>
<text text-anchor="start" x="22" y="-132.5" font-family="Helvetica,sans-Serif" font-size="10.00"> override</text>
<text text-anchor="start" x="9" y="-117.5" font-family="Helvetica,sans-Serif" font-size="10.00">+</text>
<text text-anchor="start" x="22" y="-117.5" font-family="Helvetica,sans-Serif" font-size="10.00">bool compile(const</text>
<text text-anchor="start" x="22" y="-106.5" font-family="Helvetica,sans-Serif" font-size="10.00"> std::string &amp;vertPath,</text>
<text text-anchor="start" x="22" y="-95.5" font-family="Helvetica,sans-Serif" font-size="10.00"> const std::string &amp;fragPath)</text>
<text text-anchor="start" x="22" y="-84.5" font-family="Helvetica,sans-Serif" font-size="10.00"> override</text>
<text text-anchor="start" x="9" y="-69.5" font-family="Helvetica,sans-Serif" font-size="10.00">+</text>
<text text-anchor="start" x="22" y="-69.5" font-family="Helvetica,sans-Serif" font-size="10.00">ID3D11InputLayout *</text>
<text text-anchor="start" x="22" y="-58.5" font-family="Helvetica,sans-Serif" font-size="10.00"> createInputLayout()</text>
<text text-anchor="start" x="9" y="-43.5" font-family="Helvetica,sans-Serif" font-size="10.00">+</text>
<text text-anchor="start" x="22" y="-43.5" font-family="Helvetica,sans-Serif" font-size="10.00">ID3D11InputLayout *</text>
<text text-anchor="start" x="22" y="-32.5" font-family="Helvetica,sans-Serif" font-size="10.00"> getInputLayout() const</text>
<text text-anchor="start" x="9" y="-17.5" font-family="Helvetica,sans-Serif" font-size="10.00">+</text>
<text text-anchor="start" x="22" y="-17.5" font-family="Helvetica,sans-Serif" font-size="10.00">ID3DBlob * getVertexShader</text>
<text text-anchor="start" x="22" y="-6.5" font-family="Helvetica,sans-Serif" font-size="10.00">Blob() const</text>
<polygon fill="#666666" stroke="#666666" points="5,-246.5 5,-246.5 182,-246.5 182,-246.5 5,-246.5"/>
<polygon fill="#666666" stroke="#666666" points="5,-231.5 5,-231.5 182,-231.5 182,-231.5 5,-231.5"/>
<polygon fill="none" stroke="#666666" points="4.5,0 4.5,-275 181.5,-275 181.5,0 4.5,0"/>
</a>
</g>
</g>
<!-- Node2 -->
<g id="Node000002" class="node">
<title>Node2</title>
<g id="a_Node000002"><a xlink:href="classSleak_1_1RenderEngine_1_1Shader.html" target="_top" xlink:title="Backend&#45;agnostic compiled shader program.">
<polygon fill="white" stroke="transparent" points="186,-449 0,-449 0,-311 186,-311 186,-449"/>
<text text-anchor="start" x="42.5" y="-437" font-family="Helvetica,sans-Serif" font-size="10.00">Sleak::RenderEngine</text>
<text text-anchor="start" x="73" y="-426" font-family="Helvetica,sans-Serif" font-size="10.00">::Shader</text>
<text text-anchor="start" x="91" y="-411" font-family="Helvetica,sans-Serif" font-size="10.00"> </text>
<text text-anchor="start" x="4" y="-396" font-family="Helvetica,sans-Serif" font-size="10.00">+</text>
<text text-anchor="start" x="17" y="-396" font-family="Helvetica,sans-Serif" font-size="10.00">virtual ~Shader()=default</text>
<text text-anchor="start" x="4" y="-381" font-family="Helvetica,sans-Serif" font-size="10.00">+</text>
<text text-anchor="start" x="17" y="-381" font-family="Helvetica,sans-Serif" font-size="10.00">virtual void bind()=0</text>
<text text-anchor="start" x="4" y="-366" font-family="Helvetica,sans-Serif" font-size="10.00">+</text>
<text text-anchor="start" x="17" y="-366" font-family="Helvetica,sans-Serif" font-size="10.00">virtual bool compile</text>
<text text-anchor="start" x="17" y="-355" font-family="Helvetica,sans-Serif" font-size="10.00">(const std::string &amp;shaderPath)=0</text>
<text text-anchor="start" x="4" y="-340" font-family="Helvetica,sans-Serif" font-size="10.00">+</text>
<text text-anchor="start" x="17" y="-340" font-family="Helvetica,sans-Serif" font-size="10.00">virtual bool compile</text>
<text text-anchor="start" x="17" y="-329" font-family="Helvetica,sans-Serif" font-size="10.00">(const std::string &amp;vert,</text>
<text text-anchor="start" x="17" y="-318" font-family="Helvetica,sans-Serif" font-size="10.00"> const std::string &amp;frag)=0</text>
<polygon fill="#666666" stroke="#666666" points="0,-421 0,-421 186,-421 186,-421 0,-421"/>
<polygon fill="#666666" stroke="#666666" points="0,-406 0,-406 186,-406 186,-406 0,-406"/>
<polygon fill="none" stroke="#666666" points="0,-311 0,-449 186,-449 186,-311 0,-311"/>
</a>
</g>
</g>
<!-- Node2&#45;&gt;Node1 -->
<g id="edge1_Node000001_Node000002" class="edge">
<title>Node2&#45;&gt;Node1</title>
<g id="a_edge1_Node000001_Node000002"><a xlink:title=" ">
<path fill="none" stroke="#63b8ff" d="M93,-300.52C93,-292.33 93,-283.85 93,-275.24"/>
<polygon fill="none" stroke="#63b8ff" points="89.5,-300.73 93,-310.73 96.5,-300.73 89.5,-300.73"/>
</a>
</g>
</g>
</g>
</svg>
