<?xml version="1.0" encoding="UTF-8" standalone="no"?>
<!DOCTYPE svg PUBLIC "-//W3C//DTD SVG 1.1//EN"
 "http://www.w3.org/Graphics/SVG/1.1/DTD/svg11.dtd">
<!-- Generated by graphviz version 2.43.0 (0)
 -->
<!-- Title: include/private/Graphics Pages: 1 -->
<svg width="403pt" height="196pt"
 viewBox="0.00 0.00 403.00 196.00" xmlns="http://www.w3.org/2000/svg" xmlns:xlink="http://www.w3.org/1999/xlink">
<g id="page0,1_graph0" class="graph" transform="scale(1 1) rotate(0) translate(4 192)">
<title>include/private/Graphics</title>
<g id="clust1" class="cluster">
<title>clusterdir_4bd6cd521a56a9f4d924ab2d33a9895d</title>
<g id="a_clust1"><a xlink:href="dir_4bd6cd521a56a9f4d924ab2d33a9895d.html" target="_top" xlink:title="private">
<polygon fill="#edf2f7" stroke="#7f7f7f" stroke-dasharray="5,2" points="8,-8 8,-180 341,-180 341,-8 8,-8"/>
<text text-anchor="middle" x="174.5" y="-168" font-family="Helvetica,sans-Serif" font-size="10.00">private</text>
</a>
</g>
</g>
<g id="clust2" class="cluster">
<title>clusterdir_61d52bb3d6b669f06451f407f77dbcc9</title>
<g id="a_clust2"><a xlink:href="dir_61d52bb3d6b669f06451f407f77dbcc9.html" target="_top">
<polygon fill="#edf2f7" stroke="#404040" stroke-width="2" points="28,-63 28,-153 333,-153 333,-63 28,-63"/>
</a>
</g>
</g>
<!-- dir_484677268aad67e935fd5eace4621b8e -->
<g id="node1" class="node">
<title>dir_484677268aad67e935fd5eace4621b8e</title>
<g id="a_node1"><a xlink:href="dir_484677268aad67e935fd5eace4621b8e.html" target="_top" xlink:title="Core">
<polygon fill="#a2bcd6" stroke="#404040" points="69.5,-35 30.5,-35 30.5,-16 69.5,-16 69.5,-35"/>
<text text-anchor="middle" x="50" y="-23" font-family="Helvetica,sans-Serif" font-size="10.00">Core</text>
</a>
</g>
</g>
<!-- dir_61d52bb3d6b669f06451f407f77dbcc9 -->
<g id="node2" class="node">
<title>dir_61d52bb3d6b669f06451f407f77dbcc9</title>
<text text-anchor="middle" x="276" y="-133" font-family="Helvetica,sans-Serif" font-size="10.00">Graphics</text>
</g>
<!-- dir_75bb1dd553fed347c2507aa6be53a285 -->
<g id="node3" class="node">
<title>dir_75bb1dd553fed347c2507aa6be53a285</title>
<g id="a_node3"><a xlink:href="dir_75bb1dd553fed347c2507aa6be53a285.html" target="_top" xlink:title="Common">
<polygon fill="#a2bcd6" stroke="#404040" points="191.5,-145 130.5,-145 130.5,-126 191.5,-126 191.5,-145"/>
<text text-anchor="middle" x="161" y="-133" font-family="Helvetica,sans-Serif" font-size="10.00">Common</text>
</a>
</g>
</g>
<!-- dir_75bb1dd553fed347c2507aa6be53a285&#45;&gt;dir_484677268aad67e935fd5eace4621b8e -->
<g id="edge3" class="edge">
<title>dir_75bb1dd553fed347c2507aa6be53a285&#45;&gt;dir_484677268aad67e935fd5eace4621b8e</title>
<g id="a_edge3"><a xlink:href="dir_000004_000008.html" target="_top">
<path fill="none" stroke="#63b8ff" d="M130.34,-134C98.61,-131.64 50.45,-122.5 27,-90 16.76,-75.8 26.28,-56.57 36,-43"/>
<polygon fill="#63b8ff" stroke="#63b8ff" points="38.84,-45.06 42.22,-35.01 33.31,-40.76 38.84,-45.06"/>
</a>
</g>
<g id="a_edge3&#45;headlabel"><a xlink:href="dir_000004_000008.html" target="_top" xlink:title="1">
<text text-anchor="middle" x="38.88" y="-47.14" font-family="Helvetica,sans-Serif" font-size="10.00" fill="#63b8ff">1</text>
</a>
</g>
</g>
<!-- dir_6e6a0d6e87e650d0e7789d1b51ff9f1c -->
<g id="node4" class="node">
<title>dir_6e6a0d6e87e650d0e7789d1b51ff9f1c</title>
<g id="a_node4"><a xlink:href="dir_6e6a0d6e87e650d0e7789d1b51ff9f1c.html" target="_top" xlink:title="DirectX11">
<polygon fill="#a2bcd6" stroke="#404040" points="324.5,-90 259.5,-90 259.5,-71 324.5,-71 324.5,-90"/>
<text text-anchor="middle" x="292" y="-78" font-family="Helvetica,sans-Serif" font-size="10.00">DirectX11</text>
</a>
</g>
</g>
<!-- dir_75bb1dd553fed347c2507aa6be53a285&#45;&gt;dir_6e6a0d6e87e650d0e7789d1b51ff9f1c -->
<g id="edge4" class="edge">
<title>dir_75bb1dd553fed347c2507aa6be53a285&#45;&gt;dir_6e6a0d6e87e650d0e7789d1b51ff9f1c</title>
<g id="a_edge4"><a xlink:href="dir_000004_000015.html" target="_top">
<path fill="none" stroke="#63b8ff" d="M176.93,-125.98C196.56,-117.27 230.03,-103.63 255.92,-93.75"/>
<polygon fill="#63b8ff" stroke="#63b8ff" points="257.3,-96.97 265.42,-90.17 254.83,-90.42 257.3,-96.97"/>
</a>
</g>
<g id="a_edge4&#45;headlabel"><a xlink:href="dir_000004_000015.html" target="_top" xlink:title="1">
<text text-anchor="middle" x="254.94" y="-98.4" font-family="Helvetica,sans-Serif" font-size="10.00" fill="#63b8ff">1</text>
</a>
</g>
</g>
<!-- dir_2dc737601f3f831e0089bc021e75f3ef -->
<g id="node5" class="node">
<title>dir_2dc737601f3f831e0089bc021e75f3ef</title>
<g id="a_node5"><a xlink:href="dir_2dc737601f3f831e0089bc021e75f3ef.html" target="_top" xlink:title="DirectX12">
<polygon fill="#a2bcd6" stroke="#404040" points="174.5,-90 109.5,-90 109.5,-71 174.5,-71 174.5,-90"/>
<text text-anchor="middle" x="142" y="-78" font-family="Helvetica,sans-Serif" font-size="10.00">DirectX12</text>
</a>
</g>
</g>
<!-- dir_75bb1dd553fed347c2507aa6be53a285&#45;&gt;dir_2dc737601f3f831e0089bc021e75f3ef -->
<g id="edge1" class="edge">
<title>dir_75bb1dd553fed347c2507aa6be53a285&#45;&gt;dir_2dc737601f3f831e0089bc021e75f3ef</title>
<g id="a_edge1"><a xlink:href="dir_000004_000017.html" target="_top">
<path fill="none" stroke="#63b8ff" d="M152.7,-125.75C148.71,-118.8 144.71,-108.85 142.2,-100.13"/>
<polygon fill="#63b8ff" stroke="#63b8ff" points="145.55,-99.08 139.95,-90.09 138.72,-100.61 145.55,-99.08"/>
</a>
</g>
<g id="a_edge1&#45;headlabel"><a xlink:href="dir_000004_000017.html" target="_top" xlink:title="1">
<text text-anchor="middle" x="149.11" y="-99.47" font-family="Helvetica,sans-Serif" font-size="10.00" fill="#63b8ff">1</text>
</a>
</g>
</g>
<!-- dir_d6f19f704ee7dca896e5b64bf6fdbc78 -->
<g id="node6" class="node">
<title>dir_d6f19f704ee7dca896e5b64bf6fdbc78</title>
<g id="a_node6"><a xlink:href="dir_d6f19f704ee7dca896e5b64bf6fdbc78.html" target="_top" xlink:title="OpenGL">
<polygon fill="#a2bcd6" stroke="#404040" points="91.5,-90 36.5,-90 36.5,-71 91.5,-71 91.5,-90"/>
<text text-anchor="middle" x="64" y="-78" font-family="Helvetica,sans-Serif" font-size="10.00">OpenGL</text>
</a>
</g>
</g>
<!-- dir_75bb1dd553fed347c2507aa6be53a285&#45;&gt;dir_d6f19f704ee7dca896e5b64bf6fdbc78 -->
<g id="edge5" class="edge">
<title>dir_75bb1dd553fed347c2507aa6be53a285&#45;&gt;dir_d6f19f704ee7dca896e5b64bf6fdbc78</title>
<g id="a_edge5"><a xlink:href="dir_000004_000032.html" target="_top">
<path fill="none" stroke="#63b8ff" d="M140.3,-125.98C123.45,-117.77 100.1,-105.18 83.57,-95.49"/>
<polygon fill="#63b8ff" stroke="#63b8ff" points="85.09,-92.32 74.72,-90.17 81.49,-98.32 85.09,-92.32"/>
</a>
</g>
<g id="a_edge5&#45;headlabel"><a xlink:href="dir_000004_000032.html" target="_top" xlink:title="1">
<text text-anchor="middle" x="89.64" y="-89.24" font-family="Helvetica,sans-Serif" font-size="10.00" fill="#63b8ff">1</text>
</a>
</g>
</g>
<!-- dir_3b9e7ac8543100dae21ec3b37a662054 -->
<g id="node7" class="node">
<title>dir_3b9e7ac8543100dae21ec3b37a662054</title>
<g id="a_node7"><a xlink:href="dir_3b9e7ac8543100dae21ec3b37a662054.html" target="_top" xlink:title="Vulkan">
<polygon fill="#a2bcd6" stroke="#404040" points="241.5,-90 192.5,-90 192.5,-71 241.5,-71 241.5,-90"/>
<text text-anchor="middle" x="217" y="-78" font-family="Helvetica,sans-Serif" font-size="10.00">Vulkan</text>
</a>
</g>
</g>
<!-- dir_75bb1dd553fed347c2507aa6be53a285&#45;&gt;dir_3b9e7ac8543100dae21ec3b37a662054 -->
<g id="edge2" class="edge">
<title>dir_75bb1dd553fed347c2507aa6be53a285&#45;&gt;dir_3b9e7ac8543100dae21ec3b37a662054</title>
<g id="a_edge2"><a xlink:href="dir_000004_000045.html" target="_top">
<path fill="none" stroke="#63b8ff" d="M165.08,-125.75C171.77,-117.8 184.01,-105.91 195.06,-96.45"/>
<polygon fill="#63b8ff" stroke="#63b8ff" points="197.29,-99.14 202.79,-90.09 192.85,-93.74 197.29,-99.14"/>
</a>
</g>
<g id="a_edge2&#45;headlabel"><a xlink:href="dir_000004_000045.html" target="_top" xlink:title="1">
<text text-anchor="middle" x="196.32" y="-101.12" font-family="Helvetica,sans-Serif" font-size="10.00" fill="#63b8ff">1</text>
</a>
</g>
</g>
<!-- dir_fee577f973e9836fa6472c276e533c82 -->
<g id="node8" class="node">
<title>dir_fee577f973e9836fa6472c276e533c82</title>
<g id="a_node8"><a xlink:href="dir_fee577f973e9836fa6472c276e533c82.html" target="_top" xlink:title="public">
<polygon fill="#edf2f7" stroke="red" stroke-dasharray="5,2" points="395,-35 349,-35 349,-16 395,-16 395,-35"/>
<text text-anchor="middle" x="372" y="-23" font-family="Helvetica,sans-Serif" font-size="10.00">public</text>
</a>
</g>
</g>
<!-- dir_75bb1dd553fed347c2507aa6be53a285&#45;&gt;dir_fee577f973e9836fa6472c276e533c82 -->
<g id="edge6" class="edge">
<title>dir_75bb1dd553fed347c2507aa6be53a285&#45;&gt;dir_fee577f973e9836fa6472c276e533c82</title>
<g id="a_edge6"><a xlink:href="dir_000004_000038.html" target="_top">
<path fill="none" stroke="#63b8ff" d="M191.57,-129.43C234.71,-121.8 310.68,-106.5 333,-90 348.4,-78.61 359.04,-59.16 365.26,-44.77"/>
<polygon fill="#63b8ff" stroke="#63b8ff" points="368.55,-45.97 369.02,-35.39 362.06,-43.37 368.55,-45.97"/>
</a>
</g>
<g id="a_edge6&#45;headlabel"><a xlink:href="dir_000004_000038.html" target="_top" xlink:title="16">
<text text-anchor="middle" x="369.85" y="-47.86" font-family="Helvetica,sans-Serif" font-size="10.00" fill="#63b8ff">16</text>
</a>
</g>
</g>
<!-- dir_6e6a0d6e87e650d0e7789d1b51ff9f1c&#45;&gt;dir_75bb1dd553fed347c2507aa6be53a285 -->
<g id="edge7" class="edge">
<title>dir_6e6a0d6e87e650d0e7789d1b51ff9f1c&#45;&gt;dir_75bb1dd553fed347c2507aa6be53a285</title>
<g id="a_edge7"><a xlink:href="dir_000015_000004.html" target="_top">
<path fill="none" stroke="#63b8ff" d="M275.72,-90.17C255.93,-98.95 222.42,-112.59 196.63,-122.42"/>
<polygon fill="#63b8ff" stroke="#63b8ff" points="195.29,-119.18 187.16,-125.98 197.75,-125.74 195.29,-119.18"/>
</a>
</g>
<g id="a_edge7&#45;headlabel"><a xlink:href="dir_000015_000004.html" target="_top" xlink:title="2">
<text text-anchor="middle" x="197.65" y="-112.76" font-family="Helvetica,sans-Serif" font-size="10.00" fill="#63b8ff">2</text>
</a>
</g>
</g>
<!-- dir_6e6a0d6e87e650d0e7789d1b51ff9f1c&#45;&gt;dir_fee577f973e9836fa6472c276e533c82 -->
<g id="edge8" class="edge">
<title>dir_6e6a0d6e87e650d0e7789d1b51ff9f1c&#45;&gt;dir_fee577f973e9836fa6472c276e533c82</title>
<g id="a_edge8"><a xlink:href="dir_000015_000038.html" target="_top">
<path fill="none" stroke="#63b8ff" d="M304.85,-70.98C317.14,-62.84 335.91,-50.41 350.48,-40.76"/>
<polygon fill="#63b8ff" stroke="#63b8ff" points="352.51,-43.61 358.91,-35.17 348.64,-37.78 352.51,-43.61"/>
</a>
</g>
<g id="a_edge8&#45;headlabel"><a xlink:href="dir_000015_000038.html" target="_top" xlink:title="4">
<text text-anchor="middle" x="351.08" y="-45.46" font-family="Helvetica,sans-Serif" font-size="10.00" fill="#63b8ff">4</text>
</a>
</g>
</g>
<!-- dir_2dc737601f3f831e0089bc021e75f3ef&#45;&gt;dir_75bb1dd553fed347c2507aa6be53a285 -->
<g id="edge9" class="edge">
<title>dir_2dc737601f3f831e0089bc021e75f3ef&#45;&gt;dir_75bb1dd553fed347c2507aa6be53a285</title>
<g id="a_edge9"><a xlink:href="dir_000017_000004.html" target="_top">
<path fill="none" stroke="#63b8ff" d="M150.21,-90.09C154.24,-97.06 158.3,-107.15 160.82,-115.95"/>
<polygon fill="#63b8ff" stroke="#63b8ff" points="157.42,-116.76 163.03,-125.75 164.25,-115.22 157.42,-116.76"/>
</a>
</g>
<g id="a_edge9&#45;headlabel"><a xlink:href="dir_000017_000004.html" target="_top" xlink:title="2">
<text text-anchor="middle" x="153.86" y="-111.38" font-family="Helvetica,sans-Serif" font-size="10.00" fill="#63b8ff">2</text>
</a>
</g>
</g>
<!-- dir_2dc737601f3f831e0089bc021e75f3ef&#45;&gt;dir_fee577f973e9836fa6472c276e533c82 -->
<g id="edge10" class="edge">
<title>dir_2dc737601f3f831e0089bc021e75f3ef&#45;&gt;dir_fee577f973e9836fa6472c276e533c82</title>
<g id="a_edge10"><a xlink:href="dir_000017_000038.html" target="_top">
<path fill="none" stroke="#63b8ff" d="M160.9,-70.92C167.75,-68.07 175.62,-65.1 183,-63 250.13,-43.92 272.03,-51.46 339.02,-36.32"/>
<polygon fill="#63b8ff" stroke="#63b8ff" points="339.85,-39.72 348.79,-34.03 338.25,-32.9 339.85,-39.72"/>
</a>
</g>
<g id="a_edge10&#45;headlabel"><a xlink:href="dir_000017_000038.html" target="_top" xlink:title="3">
<text text-anchor="middle" x="337" y="-40.8" font-family="Helvetica,sans-Serif" font-size="10.00" fill="#63b8ff">3</text>
</a>
</g>
</g>
<!-- dir_d6f19f704ee7dca896e5b64bf6fdbc78&#45;&gt;dir_484677268aad67e935fd5eace4621b8e -->
<g id="edge11" class="edge">
<title>dir_d6f19f704ee7dca896e5b64bf6fdbc78&#45;&gt;dir_484677268aad67e935fd5eace4621b8e</title>
<g id="a_edge11"><a xlink:href="dir_000032_000008.html" target="_top">
<path fill="none" stroke="#63b8ff" d="M61.69,-70.75C59.83,-63.72 57.16,-53.62 54.85,-44.84"/>
<polygon fill="#63b8ff" stroke="#63b8ff" points="58.21,-43.86 52.27,-35.09 51.44,-45.65 58.21,-43.86"/>
</a>
</g>
<g id="a_edge11&#45;headlabel"><a xlink:href="dir_000032_000008.html" target="_top" xlink:title="1">
<text text-anchor="middle" x="61.87" y="-44.11" font-family="Helvetica,sans-Serif" font-size="10.00" fill="#63b8ff">1</text>
</a>
</g>
</g>
<!-- dir_d6f19f704ee7dca896e5b64bf6fdbc78&#45;&gt;dir_75bb1dd553fed347c2507aa6be53a285 -->
<g id="edge12" class="edge">
<title>dir_d6f19f704ee7dca896e5b64bf6fdbc78&#45;&gt;dir_75bb1dd553fed347c2507aa6be53a285</title>
<g id="a_edge12"><a xlink:href="dir_000032_000004.html" target="_top">
<path fill="none" stroke="#63b8ff" d="M85.02,-90.17C101.95,-98.44 125.3,-111.04 141.74,-120.7"/>
<polygon fill="#63b8ff" stroke="#63b8ff" points="140.16,-123.83 150.53,-125.98 143.77,-117.83 140.16,-123.83"/>
</a>
</g>
<g id="a_edge12&#45;headlabel"><a xlink:href="dir_000032_000004.html" target="_top" xlink:title="4">
<text text-anchor="middle" x="135.61" y="-121.9" font-family="Helvetica,sans-Serif" font-size="10.00" fill="#63b8ff">4</text>
</a>
</g>
</g>
<!-- dir_d6f19f704ee7dca896e5b64bf6fdbc78&#45;&gt;dir_fee577f973e9836fa6472c276e533c82 -->
<g id="edge13" class="edge">
<title>dir_d6f19f704ee7dca896e5b64bf6fdbc78&#45;&gt;dir_fee577f973e9836fa6472c276e533c82</title>
<g id="a_edge13"><a xlink:href="dir_000032_000038.html" target="_top">
<path fill="none" stroke="#63b8ff" d="M79.72,-70.99C85.88,-68 93.11,-64.92 100,-63 202.38,-34.47 235.78,-56.37 338.94,-36.13"/>
<polygon fill="#63b8ff" stroke="#63b8ff" points="339.71,-39.55 348.81,-34.11 338.31,-32.69 339.71,-39.55"/>
</a>
</g>
<g id="a_edge13&#45;headlabel"><a xlink:href="dir_000032_000038.html" target="_top" xlink:title="6">
<text text-anchor="middle" x="336.76" y="-40.55" font-family="Helvetica,sans-Serif" font-size="10.00" fill="#63b8ff">6</text>
</a>
</g>
</g>
<!-- dir_3b9e7ac8543100dae21ec3b37a662054&#45;&gt;dir_75bb1dd553fed347c2507aa6be53a285 -->
<g id="edge14" class="edge">
<title>dir_3b9e7ac8543100dae21ec3b37a662054&#45;&gt;dir_75bb1dd553fed347c2507aa6be53a285</title>
<g id="a_edge14"><a xlink:href="dir_000045_000004.html" target="_top">
<path fill="none" stroke="#63b8ff" d="M212.99,-90.17C206.3,-98.13 193.98,-110.11 182.88,-119.6"/>
<polygon fill="#63b8ff" stroke="#63b8ff" points="180.62,-116.93 175.11,-125.98 185.06,-122.34 180.62,-116.93"/>
</a>
</g>
<g id="a_edge14&#45;headlabel"><a xlink:href="dir_000045_000004.html" target="_top" xlink:title="4">
<text text-anchor="middle" x="181.59" y="-109.96" font-family="Helvetica,sans-Serif" font-size="10.00" fill="#63b8ff">4</text>
</a>
</g>
</g>
<!-- dir_3b9e7ac8543100dae21ec3b37a662054&#45;&gt;dir_fee577f973e9836fa6472c276e533c82 -->
<g id="edge15" class="edge">
<title>dir_3b9e7ac8543100dae21ec3b37a662054&#45;&gt;dir_fee577f973e9836fa6472c276e533c82</title>
<g id="a_edge15"><a xlink:href="dir_000045_000038.html" target="_top">
<path fill="none" stroke="#63b8ff" d="M232.85,-70.86C238.21,-68.14 244.28,-65.25 250,-63 287.92,-48.07 300.96,-47.78 339.07,-36.73"/>
<polygon fill="#63b8ff" stroke="#63b8ff" points="340.15,-40.06 348.74,-33.85 338.16,-33.35 340.15,-40.06"/>
</a>
</g>
<g id="a_edge15&#45;headlabel"><a xlink:href="dir_000045_000038.html" target="_top" xlink:title="6">
<text text-anchor="middle" x="337.52" y="-41.31" font-family="Helvetica,sans-Serif" font-size="10.00" fill="#63b8ff">6</text>
</a>
</g>
</g>
</g>
</svg>
