<?xml version="1.0" encoding="UTF-8" standalone="no"?>
<!DOCTYPE svg PUBLIC "-//W3C//DTD SVG 1.1//EN"
 "http://www.w3.org/Graphics/SVG/1.1/DTD/svg11.dtd">
<!-- Generated by graphviz version 2.43.0 (0)
 -->
<!-- Title: Graphical Class Hierarchy Pages: 1 -->
<svg width="642pt" height="378pt"
 viewBox="0.00 0.00 642.00 378.00" xmlns="http://www.w3.org/2000/svg" xmlns:xlink="http://www.w3.org/1999/xlink">
<g id="graph0" class="graph" transform="scale(1 1) rotate(0) translate(4 374)">
<title>Graphical Class Hierarchy</title>
<!-- Node0 -->
<g id="Node000000" class="node">
<title>Node0</title>
<g id="a_Node000000"><a xlink:href="classSleak_1_1Object.html" target="_top" xlink:title=" ">
<polygon fill="white" stroke="#666666" points="81,-111 0,-111 0,-92 81,-92 81,-111"/>
<text text-anchor="middle" x="40.5" y="-99" font-family="Helvetica,sans-Serif" font-size="10.00">Sleak::Object</text>
</a>
</g>
</g>
<!-- Node1 -->
<g id="Node000001" class="node">
<title>Node1</title>
<g id="a_Node000001"><a xlink:href="classSleak_1_1Component.html" target="_top" xlink:title=" ">
<polygon fill="white" stroke="#666666" points="225,-240 119,-240 119,-221 225,-221 225,-240"/>
<text text-anchor="middle" x="172" y="-228" font-family="Helvetica,sans-Serif" font-size="10.00">Sleak::Component</text>
</a>
</g>
</g>
<!-- Node0&#45;&gt;Node1 -->
<g id="edge23_Node000000_Node000001" class="edge">
<title>Node0&#45;&gt;Node1</title>
<g id="a_edge23_Node000000_Node000001"><a xlink:title=" ">
<path fill="none" stroke="#63b8ff" d="M58.56,-118.5C86.03,-145.86 139.2,-198.83 161.15,-220.69"/>
<polygon fill="#63b8ff" stroke="#63b8ff" points="60.79,-115.77 51.23,-111.2 55.85,-120.73 60.79,-115.77"/>
</a>
</g>
</g>
<!-- Node11 -->
<g id="Node000011" class="node">
<title>Node11</title>
<g id="a_Node000011"><a xlink:href="classSleak_1_1GameObject.html" target="_top" xlink:title=" ">
<polygon fill="white" stroke="#666666" points="227,-111 117,-111 117,-92 227,-92 227,-111"/>
<text text-anchor="middle" x="172" y="-99" font-family="Helvetica,sans-Serif" font-size="10.00">Sleak::GameObject</text>
</a>
</g>
</g>
<!-- Node0&#45;&gt;Node11 -->
<g id="edge33_Node000000_Node000011" class="edge">
<title>Node0&#45;&gt;Node11</title>
<g id="a_edge33_Node000000_Node000011"><a xlink:title=" ">
<path fill="none" stroke="#63b8ff" d="M91.13,-101.5C99.56,-101.5 108.36,-101.5 116.9,-101.5"/>
<polygon fill="#63b8ff" stroke="#63b8ff" points="91.06,-98 81.06,-101.5 91.06,-105 91.06,-98"/>
</a>
</g>
</g>
<!-- Node18 -->
<g id="Node000018" class="node">
<title>Node18</title>
<g id="a_Node000018"><a xlink:href="classSleak_1_1Material.html" target="_top" xlink:title=" ">
<polygon fill="white" stroke="#666666" points="217,-74 127,-74 127,-55 217,-55 217,-74"/>
<text text-anchor="middle" x="172" y="-62" font-family="Helvetica,sans-Serif" font-size="10.00">Sleak::Material</text>
</a>
</g>
</g>
<!-- Node0&#45;&gt;Node18 -->
<g id="edge40_Node000000_Node000018" class="edge">
<title>Node0&#45;&gt;Node18</title>
<g id="a_edge40_Node000000_Node000018"><a xlink:title=" ">
<path fill="none" stroke="#63b8ff" d="M84.64,-89.17C101.79,-84.27 121.23,-78.72 137.31,-74.12"/>
<polygon fill="#63b8ff" stroke="#63b8ff" points="83.5,-85.86 74.85,-91.97 85.43,-92.59 83.5,-85.86"/>
</a>
</g>
</g>
<!-- Node2 -->
<g id="Node000002" class="node">
<title>Node2</title>
<g id="a_Node000002"><a xlink:href="classSleak_1_1AnimatorComponent.html" target="_top" xlink:title=" ">
<polygon fill="white" stroke="#666666" points="416,-370 265,-370 265,-351 416,-351 416,-370"/>
<text text-anchor="middle" x="340.5" y="-358" font-family="Helvetica,sans-Serif" font-size="10.00">Sleak::AnimatorComponent</text>
</a>
</g>
</g>
<!-- Node1&#45;&gt;Node2 -->
<g id="edge24_Node000001_Node000002" class="edge">
<title>Node1&#45;&gt;Node2</title>
<g id="a_edge24_Node000001_Node000002"><a xlink:title=" ">
<path fill="none" stroke="#63b8ff" d="M182.65,-249C196.78,-274.2 225.56,-318.9 263,-342.5 268.42,-345.92 274.44,-348.69 280.64,-350.94"/>
<polygon fill="#63b8ff" stroke="#63b8ff" points="185.65,-247.2 177.8,-240.09 179.5,-250.54 185.65,-247.2"/>
</a>
</g>
</g>
<!-- Node3 -->
<g id="Node000003" class="node">
<title>Node3</title>
<g id="a_Node000003"><a xlink:href="classSleak_1_1CameraController.html" target="_top" xlink:title=" ">
<polygon fill="white" stroke="#666666" points="408.5,-333 272.5,-333 272.5,-314 408.5,-314 408.5,-333"/>
<text text-anchor="middle" x="340.5" y="-321" font-family="Helvetica,sans-Serif" font-size="10.00">Sleak::CameraController</text>
</a>
</g>
</g>
<!-- Node1&#45;&gt;Node3 -->
<g id="edge25_Node000001_Node000003" class="edge">
<title>Node1&#45;&gt;Node3</title>
<g id="a_edge25_Node000001_Node000003"><a xlink:title=" ">
<path fill="none" stroke="#63b8ff" d="M188.97,-247.87C205.76,-265.08 233.75,-290.9 263,-305.5 269.84,-308.91 277.34,-311.69 284.9,-313.95"/>
<polygon fill="#63b8ff" stroke="#63b8ff" points="191.1,-245.04 181.67,-240.21 186.03,-249.86 191.1,-245.04"/>
</a>
</g>
</g>
<!-- Node6 -->
<g id="Node000006" class="node">
<title>Node6</title>
<g id="a_Node000006"><a xlink:href="classSleak_1_1ColliderComponent.html" target="_top" xlink:title=" ">
<polygon fill="white" stroke="#666666" points="412,-296 269,-296 269,-277 412,-277 412,-296"/>
<text text-anchor="middle" x="340.5" y="-284" font-family="Helvetica,sans-Serif" font-size="10.00">Sleak::ColliderComponent</text>
</a>
</g>
</g>
<!-- Node1&#45;&gt;Node6 -->
<g id="edge28_Node000001_Node000006" class="edge">
<title>Node1&#45;&gt;Node6</title>
<g id="a_edge28_Node000001_Node000006"><a xlink:title=" ">
<path fill="none" stroke="#63b8ff" d="M202.56,-244.47C219.9,-252.28 242.38,-261.77 263,-268.5 272.73,-271.67 283.32,-274.53 293.44,-276.99"/>
<polygon fill="#63b8ff" stroke="#63b8ff" points="203.55,-241.07 193,-240.1 200.64,-247.44 203.55,-241.07"/>
</a>
</g>
</g>
<!-- Node7 -->
<g id="Node000007" class="node">
<title>Node7</title>
<g id="a_Node000007"><a xlink:href="classSleak_1_1MaterialComponent.html" target="_top" xlink:title=" ">
<polygon fill="white" stroke="#666666" points="413.5,-259 267.5,-259 267.5,-240 413.5,-240 413.5,-259"/>
<text text-anchor="middle" x="340.5" y="-247" font-family="Helvetica,sans-Serif" font-size="10.00">Sleak::MaterialComponent</text>
</a>
</g>
</g>
<!-- Node1&#45;&gt;Node7 -->
<g id="edge29_Node000001_Node000007" class="edge">
<title>Node1&#45;&gt;Node7</title>
<g id="a_edge29_Node000001_Node000007"><a xlink:title=" ">
<path fill="none" stroke="#63b8ff" d="M235.45,-237.63C245.85,-238.81 256.71,-240.05 267.33,-241.26"/>
<polygon fill="#63b8ff" stroke="#63b8ff" points="235.56,-234.12 225.22,-236.46 234.76,-241.07 235.56,-234.12"/>
</a>
</g>
</g>
<!-- Node8 -->
<g id="Node000008" class="node">
<title>Node8</title>
<g id="a_Node000008"><a xlink:href="classSleak_1_1MeshComponent.html" target="_top" xlink:title=" ">
<polygon fill="white" stroke="#666666" points="406.5,-222 274.5,-222 274.5,-203 406.5,-203 406.5,-222"/>
<text text-anchor="middle" x="340.5" y="-210" font-family="Helvetica,sans-Serif" font-size="10.00">Sleak::MeshComponent</text>
</a>
</g>
</g>
<!-- Node1&#45;&gt;Node8 -->
<g id="edge30_Node000001_Node000008" class="edge">
<title>Node1&#45;&gt;Node8</title>
<g id="a_edge30_Node000001_Node000008"><a xlink:title=" ">
<path fill="none" stroke="#63b8ff" d="M235.26,-223.77C248,-222.39 261.43,-220.94 274.27,-219.55"/>
<polygon fill="#63b8ff" stroke="#63b8ff" points="234.79,-220.3 225.22,-224.85 235.54,-227.26 234.79,-220.3"/>
</a>
</g>
</g>
<!-- Node9 -->
<g id="Node000009" class="node">
<title>Node9</title>
<g id="a_Node000009"><a xlink:href="classSleak_1_1RigidbodyComponent.html" target="_top" xlink:title=" ">
<polygon fill="white" stroke="#666666" points="418,-185 263,-185 263,-166 418,-166 418,-185"/>
<text text-anchor="middle" x="340.5" y="-173" font-family="Helvetica,sans-Serif" font-size="10.00">Sleak::RigidbodyComponent</text>
</a>
</g>
</g>
<!-- Node1&#45;&gt;Node9 -->
<g id="edge31_Node000001_Node000009" class="edge">
<title>Node1&#45;&gt;Node9</title>
<g id="a_edge31_Node000001_Node000009"><a xlink:title=" ">
<path fill="none" stroke="#63b8ff" d="M204.04,-216.86C221.21,-209.63 243.05,-200.93 263,-194.5 273.81,-191.01 285.65,-187.79 296.72,-185.03"/>
<polygon fill="#63b8ff" stroke="#63b8ff" points="202.34,-213.78 194.52,-220.92 205.09,-220.22 202.34,-213.78"/>
</a>
</g>
</g>
<!-- Node10 -->
<g id="Node000010" class="node">
<title>Node10</title>
<g id="a_Node000010"><a xlink:href="classSleak_1_1TransformComponent.html" target="_top" xlink:title="Represents the position, rotation, and scale of an entity in 3D space.">
<polygon fill="white" stroke="#666666" points="418,-148 263,-148 263,-129 418,-129 418,-148"/>
<text text-anchor="middle" x="340.5" y="-136" font-family="Helvetica,sans-Serif" font-size="10.00">Sleak::TransformComponent</text>
</a>
</g>
</g>
<!-- Node1&#45;&gt;Node10 -->
<g id="edge32_Node000001_Node000010" class="edge">
<title>Node1&#45;&gt;Node10</title>
<g id="a_edge32_Node000001_Node000010"><a xlink:title=" ">
<path fill="none" stroke="#63b8ff" d="M189.37,-213.41C206.29,-196.74 234.22,-171.85 263,-157.5 270.72,-153.65 279.27,-150.55 287.78,-148.06"/>
<polygon fill="#63b8ff" stroke="#63b8ff" points="186.55,-211.29 182,-220.86 191.52,-216.22 186.55,-211.29"/>
</a>
</g>
</g>
<!-- Node4 -->
<g id="Node000004" class="node">
<title>Node4</title>
<g id="a_Node000004"><a xlink:href="classSleak_1_1FirstPersonController.html" target="_top" xlink:title=" ">
<polygon fill="white" stroke="#666666" points="620,-351 468,-351 468,-332 620,-332 620,-351"/>
<text text-anchor="middle" x="544" y="-339" font-family="Helvetica,sans-Serif" font-size="10.00">Sleak::FirstPersonController</text>
</a>
</g>
</g>
<!-- Node3&#45;&gt;Node4 -->
<g id="edge26_Node000003_Node000004" class="edge">
<title>Node3&#45;&gt;Node4</title>
<g id="a_edge26_Node000003_Node000004"><a xlink:title=" ">
<path fill="none" stroke="#63b8ff" d="M419,-330.42C435.04,-331.86 451.9,-333.36 467.86,-334.79"/>
<polygon fill="#63b8ff" stroke="#63b8ff" points="418.87,-326.9 408.6,-329.49 418.25,-333.87 418.87,-326.9"/>
</a>
</g>
</g>
<!-- Node5 -->
<g id="Node000005" class="node">
<title>Node5</title>
<g id="a_Node000005"><a xlink:href="classSleak_1_1FreeLookCameraController.html" target="_top" xlink:title=" ">
<polygon fill="white" stroke="#666666" points="634,-314 454,-314 454,-295 634,-295 634,-314"/>
<text text-anchor="middle" x="544" y="-302" font-family="Helvetica,sans-Serif" font-size="10.00">Sleak::FreeLookCameraController</text>
</a>
</g>
</g>
<!-- Node3&#45;&gt;Node5 -->
<g id="edge27_Node000003_Node000005" class="edge">
<title>Node3&#45;&gt;Node5</title>
<g id="a_edge27_Node000003_Node000005"><a xlink:title=" ">
<path fill="none" stroke="#63b8ff" d="M418.63,-316.23C430.18,-315.14 442.18,-314.01 453.97,-312.9"/>
<polygon fill="#63b8ff" stroke="#63b8ff" points="418.22,-312.75 408.6,-317.17 418.88,-319.72 418.22,-312.75"/>
</a>
</g>
</g>
<!-- Node12 -->
<g id="Node000012" class="node">
<title>Node12</title>
<g id="a_Node000012"><a xlink:href="classSleak_1_1Camera.html" target="_top" xlink:title=" ">
<polygon fill="white" stroke="#666666" points="384.5,-111 296.5,-111 296.5,-92 384.5,-92 384.5,-111"/>
<text text-anchor="middle" x="340.5" y="-99" font-family="Helvetica,sans-Serif" font-size="10.00">Sleak::Camera</text>
</a>
</g>
</g>
<!-- Node11&#45;&gt;Node12 -->
<g id="edge34_Node000011_Node000012" class="edge">
<title>Node11&#45;&gt;Node12</title>
<g id="a_edge34_Node000011_Node000012"><a xlink:title=" ">
<path fill="none" stroke="#63b8ff" d="M237.23,-101.5C256.98,-101.5 278.24,-101.5 296.24,-101.5"/>
<polygon fill="#63b8ff" stroke="#63b8ff" points="237.06,-98 227.06,-101.5 237.06,-105 237.06,-98"/>
</a>
</g>
</g>
<!-- Node13 -->
<g id="Node000013" class="node">
<title>Node13</title>
<g id="a_Node000013"><a xlink:href="classSleak_1_1Light.html" target="_top" xlink:title=" ">
<polygon fill="white" stroke="#666666" points="377.5,-74 303.5,-74 303.5,-55 377.5,-55 377.5,-74"/>
<text text-anchor="middle" x="340.5" y="-62" font-family="Helvetica,sans-Serif" font-size="10.00">Sleak::Light</text>
</a>
</g>
</g>
<!-- Node11&#45;&gt;Node13 -->
<g id="edge35_Node000011_Node000013" class="edge">
<title>Node11&#45;&gt;Node13</title>
<g id="a_edge35_Node000011_Node000013"><a xlink:title=" ">
<path fill="none" stroke="#63b8ff" d="M225.68,-89.79C250.94,-84.18 280.56,-77.6 303.25,-72.56"/>
<polygon fill="#63b8ff" stroke="#63b8ff" points="224.88,-86.39 215.88,-91.97 226.4,-93.22 224.88,-86.39"/>
</a>
</g>
</g>
<!-- Node14 -->
<g id="Node000014" class="node">
<title>Node14</title>
<g id="a_Node000014"><a xlink:href="classSleak_1_1AreaLight.html" target="_top" xlink:title=" ">
<polygon fill="white" stroke="#666666" points="592,-130 496,-130 496,-111 592,-111 592,-130"/>
<text text-anchor="middle" x="544" y="-118" font-family="Helvetica,sans-Serif" font-size="10.00">Sleak::AreaLight</text>
</a>
</g>
</g>
<!-- Node13&#45;&gt;Node14 -->
<g id="edge36_Node000013_Node000014" class="edge">
<title>Node13&#45;&gt;Node14</title>
<g id="a_edge36_Node000013_Node000014"><a xlink:title=" ">
<path fill="none" stroke="#63b8ff" d="M387.77,-74.08C397.87,-76.7 408.41,-79.84 418,-83.5 434.9,-89.95 436.96,-96.42 454,-102.5 467.21,-107.21 482,-110.82 495.66,-113.53"/>
<polygon fill="#63b8ff" stroke="#63b8ff" points="388.4,-70.63 377.86,-71.63 386.73,-77.42 388.4,-70.63"/>
</a>
</g>
</g>
<!-- Node15 -->
<g id="Node000015" class="node">
<title>Node15</title>
<g id="a_Node000015"><a xlink:href="classSleak_1_1DirectionalLight.html" target="_top" xlink:title=" ">
<polygon fill="white" stroke="#666666" points="607.5,-93 480.5,-93 480.5,-74 607.5,-74 607.5,-93"/>
<text text-anchor="middle" x="544" y="-81" font-family="Helvetica,sans-Serif" font-size="10.00">Sleak::DirectionalLight</text>
</a>
</g>
</g>
<!-- Node13&#45;&gt;Node15 -->
<g id="edge37_Node000013_Node000015" class="edge">
<title>Node13&#45;&gt;Node15</title>
<g id="a_edge37_Node000013_Node000015"><a xlink:title=" ">
<path fill="none" stroke="#63b8ff" d="M387.65,-68.85C415.15,-71.44 450.41,-74.77 480.39,-77.6"/>
<polygon fill="#63b8ff" stroke="#63b8ff" points="387.81,-65.35 377.52,-67.9 387.15,-72.32 387.81,-65.35"/>
</a>
</g>
</g>
<!-- Node16 -->
<g id="Node000016" class="node">
<title>Node16</title>
<g id="a_Node000016"><a xlink:href="classSleak_1_1PointLight.html" target="_top" xlink:title=" ">
<polygon fill="white" stroke="#666666" points="593,-56 495,-56 495,-37 593,-37 593,-56"/>
<text text-anchor="middle" x="544" y="-44" font-family="Helvetica,sans-Serif" font-size="10.00">Sleak::PointLight</text>
</a>
</g>
</g>
<!-- Node13&#45;&gt;Node16 -->
<g id="edge38_Node000013_Node000016" class="edge">
<title>Node13&#45;&gt;Node16</title>
<g id="a_edge38_Node000013_Node000016"><a xlink:title=" ">
<path fill="none" stroke="#63b8ff" d="M387.53,-60.39C419.59,-57.52 462.26,-53.71 494.79,-50.81"/>
<polygon fill="#63b8ff" stroke="#63b8ff" points="387.17,-56.91 377.52,-61.28 387.8,-63.88 387.17,-56.91"/>
</a>
</g>
</g>
<!-- Node17 -->
<g id="Node000017" class="node">
<title>Node17</title>
<g id="a_Node000017"><a xlink:href="classSleak_1_1SpotLight.html" target="_top" xlink:title=" ">
<polygon fill="white" stroke="#666666" points="591.5,-19 496.5,-19 496.5,0 591.5,0 591.5,-19"/>
<text text-anchor="middle" x="544" y="-7" font-family="Helvetica,sans-Serif" font-size="10.00">Sleak::SpotLight</text>
</a>
</g>
</g>
<!-- Node13&#45;&gt;Node17 -->
<g id="edge39_Node000013_Node000017" class="edge">
<title>Node13&#45;&gt;Node17</title>
<g id="a_edge39_Node000013_Node000017"><a xlink:title=" ">
<path fill="none" stroke="#63b8ff" d="M378.55,-51.62C400.36,-44.3 428.57,-35.27 454,-28.5 467.59,-24.88 482.49,-21.49 496.14,-18.59"/>
<polygon fill="#63b8ff" stroke="#63b8ff" points="377.36,-48.33 369.01,-54.85 379.61,-54.96 377.36,-48.33"/>
</a>
</g>
</g>
</g>
</svg>
