<?xml version="1.0" encoding="UTF-8" standalone="no"?>
<!DOCTYPE svg PUBLIC "-//W3C//DTD SVG 1.1//EN"
 "http://www.w3.org/Graphics/SVG/1.1/DTD/svg11.dtd">
<!-- Generated by graphviz version 2.43.0 (0)
 -->
<!-- Title: Sleak::RenderEngine::ConstantBuffer Pages: 1 -->
<!--zoomable 323 -->

<svg id="main" version="1.1" xmlns="http://www.w3.org/2000/svg" xmlns:xlink="http://www.w3.org/1999/xlink" xml:space="preserve">

<style type="text/css"><![CDATA[
.node, .edge {opacity: 0.7;}
.node.selected, .edge.selected {opacity: 1;}
.edge:hover path { stroke: red; }
.edge:hover polygon { stroke: red; fill: red; }
]]></style>

<defs>
  <circle id="rim" cx="0" cy="0" r="7"/>
  <circle id="rim2" cx="0" cy="0" r="3.5"/>
  <g id="zoomPlus">
    <use xlink:href="#rim" fill="#404040"><set attributeName="fill" to="#808080" begin="zoomplus.mouseover" end="zoomplus.mouseout"/></use>
    <path d="M-4,0h8M0,-4v8" fill="none" stroke="white" stroke-width="1.5" pointer-events="none"/>
  </g>
  <g id="zoomMin">
    <use xlink:href="#rim" fill="#404040"><set attributeName="fill" to="#808080" begin="zoomminus.mouseover" end="zoomminus.mouseout"/></use>
    <path d="M-4,0h8" fill="none" stroke="white" stroke-width="1.5" pointer-events="none"/>
  </g>
  <g id="arrowUp" transform="translate(30 24)">
    <use xlink:href="#rim"/>
    <path pointer-events="none" fill="none" stroke="white" stroke-width="1.5" d="M0,-3.0v7 M-2.5,-0.5L0,-3.0L2.5,-0.5"/>
  </g>
  <g id="arrowRight" transform="rotate(90) translate(36 -43)">
    <use xlink:href="#rim"/>
    <path pointer-events="none" fill="none" stroke="white" stroke-width="1.5" d="M0,-3.0v7 M-2.5,-0.5L0,-3.0L2.5,-0.5"/>
  </g>
  <g id="arrowDown" transform="rotate(180) translate(-30 -48)">
    <use xlink:href="#rim"/>
    <path pointer-events="none" fill="none" stroke="white" stroke-width="1.5" d="M0,-3.0v7 M-2.5,-0.5L0,-3.0L2.5,-0.5"/>
  </g>
  <g id="arrowLeft" transform="rotate(270) translate(-36 17)">
    <use xlink:href="#rim"/>
    <path pointer-events="none" fill="none" stroke="white" stroke-width="1.5" d="M0,-3.0v7 M-2.5,-0.5L0,-3.0L2.5,-0.5"/>
  </g>
  <g id="resetDef">
    <use xlink:href="#rim2" fill="#404040"><set attributeName="fill" to="#808080" begin="reset.mouseover" end="reset.mouseout"/></use>
  </g>
</defs>
<script type="application/ecmascript" xlink:href="svg.min.js"/>
<svg id="graph" class="graph" data-view-width="658" data-view-height="323" data-section-id="dynsection-0">
<g id="viewport">
<title>Sleak::RenderEngine::ConstantBuffer</title>
<!-- Node1 -->
<g id="Node000001" class="node">
<title>Node1</title>
<g id="a_Node000001"><a xlink:title="Interface for a CPU&#45;side payload that can be uploaded to a GPU constant buffer.">
<polygon fill="#999999" stroke="transparent" points="380.5,-315 244.5,-315 244.5,-218 380.5,-218 380.5,-315"/>
<text text-anchor="start" x="262" y="-302.5" font-family="Helvetica,sans-Serif" font-size="10.00">Sleak::RenderEngine</text>
<text text-anchor="start" x="273" y="-291.5" font-family="Helvetica,sans-Serif" font-size="10.00">::ConstantBuffer</text>
<text text-anchor="start" x="310.5" y="-276.5" font-family="Helvetica,sans-Serif" font-size="10.00"> </text>
<text text-anchor="start" x="248.5" y="-261.5" font-family="Helvetica,sans-Serif" font-size="10.00">+</text>
<text text-anchor="start" x="261.5" y="-261.5" font-family="Helvetica,sans-Serif" font-size="10.00">virtual void * GetData</text>
<text text-anchor="start" x="261.5" y="-250.5" font-family="Helvetica,sans-Serif" font-size="10.00">() const =0</text>
<text text-anchor="start" x="248.5" y="-235.5" font-family="Helvetica,sans-Serif" font-size="10.00">+</text>
<text text-anchor="start" x="261.5" y="-235.5" font-family="Helvetica,sans-Serif" font-size="10.00">virtual uint16_t GetSize</text>
<text text-anchor="start" x="261.5" y="-224.5" font-family="Helvetica,sans-Serif" font-size="10.00">() const =0</text>
<polygon fill="#666666" stroke="#666666" points="244.5,-286.5 244.5,-286.5 380.5,-286.5 380.5,-286.5 244.5,-286.5"/>
<polygon fill="#666666" stroke="#666666" points="244.5,-271.5 244.5,-271.5 380.5,-271.5 380.5,-271.5 244.5,-271.5"/>
<polygon fill="none" stroke="#666666" points="244.5,-218 244.5,-315 380.5,-315 380.5,-218 244.5,-218"/>
</a>
</g>
</g>
<!-- Node2 -->
<g id="Node000002" class="node">
<title>Node2</title>
<g id="a_Node000002"><a xlink:href="structSleak_1_1RenderEngine_1_1DeferredBuffer.html" target="_top" xlink:title="ConstantBuffer wrapper around DeferredCBData.">
<polygon fill="white" stroke="transparent" points="145,-160 0,-160 0,-22 145,-22 145,-160"/>
<text text-anchor="start" x="22.5" y="-148" font-family="Helvetica,sans-Serif" font-size="10.00">Sleak::RenderEngine</text>
<text text-anchor="start" x="33.5" y="-137" font-family="Helvetica,sans-Serif" font-size="10.00">::DeferredBuffer</text>
<text text-anchor="start" x="4.5" y="-122" font-family="Helvetica,sans-Serif" font-size="10.00">+</text>
<text text-anchor="start" x="17.5" y="-122" font-family="Helvetica,sans-Serif" font-size="10.00">DeferredCBData gpuData</text>
<text text-anchor="start" x="4.5" y="-107" font-family="Helvetica,sans-Serif" font-size="10.00">+</text>
<text text-anchor="start" x="17.5" y="-107" font-family="Helvetica,sans-Serif" font-size="10.00">DeferredBuffer()</text>
<text text-anchor="start" x="4.5" y="-92" font-family="Helvetica,sans-Serif" font-size="10.00">+</text>
<text text-anchor="start" x="17.5" y="-92" font-family="Helvetica,sans-Serif" font-size="10.00">DeferredBuffer(const</text>
<text text-anchor="start" x="17.5" y="-81" font-family="Helvetica,sans-Serif" font-size="10.00"> DeferredCBData &amp;data)</text>
<text text-anchor="start" x="4.5" y="-66" font-family="Helvetica,sans-Serif" font-size="10.00">+</text>
<text text-anchor="start" x="17.5" y="-66" font-family="Helvetica,sans-Serif" font-size="10.00">virtual void * GetData</text>
<text text-anchor="start" x="17.5" y="-55" font-family="Helvetica,sans-Serif" font-size="10.00">() const override</text>
<text text-anchor="start" x="4.5" y="-40" font-family="Helvetica,sans-Serif" font-size="10.00">+</text>
<text text-anchor="start" x="17.5" y="-40" font-family="Helvetica,sans-Serif" font-size="10.00">virtual uint16_t GetSize</text>
<text text-anchor="start" x="17.5" y="-29" font-family="Helvetica,sans-Serif" font-size="10.00">() const override</text>
<polygon fill="#666666" stroke="#666666" points="0.5,-132 0.5,-132 145.5,-132 145.5,-132 0.5,-132"/>
<polygon fill="#666666" stroke="#666666" points="0.5,-117 0.5,-117 15.5,-117 15.5,-117 0.5,-117"/>
<polygon fill="#666666" stroke="#666666" points="15.5,-117 15.5,-117 145.5,-117 145.5,-117 15.5,-117"/>
<polygon fill="none" stroke="#666666" points="0,-22 0,-160 145,-160 145,-22 0,-22"/>
</a>
</g>
</g>
<!-- Node1&#45;&gt;Node2 -->
<g id="edge1_Node000001_Node000002" class="edge">
<title>Node1&#45;&gt;Node2</title>
<g id="a_edge1_Node000001_Node000002"><a xlink:title=" ">
<path fill="none" stroke="#63b8ff" d="M235.46,-231.51C208.61,-217.95 179.07,-201.03 154.5,-182 145.98,-175.4 137.6,-167.86 129.64,-160.01"/>
<polygon fill="none" stroke="#63b8ff" points="233.94,-234.66 244.45,-235.97 237.05,-228.39 233.94,-234.66"/>
</a>
</g>
</g>
<!-- Node3 -->
<g id="Node000003" class="node">
<title>Node3</title>
<g id="a_Node000003"><a xlink:href="structSleak_1_1RenderEngine_1_1LightBuffer.html" target="_top" xlink:title="ConstantBuffer wrapper around LightCBData.">
<polygon fill="white" stroke="transparent" points="299.5,-160 163.5,-160 163.5,-22 299.5,-22 299.5,-160"/>
<text text-anchor="start" x="181" y="-148" font-family="Helvetica,sans-Serif" font-size="10.00">Sleak::RenderEngine</text>
<text text-anchor="start" x="201.5" y="-137" font-family="Helvetica,sans-Serif" font-size="10.00">::LightBuffer</text>
<text text-anchor="start" x="167.5" y="-122" font-family="Helvetica,sans-Serif" font-size="10.00">+</text>
<text text-anchor="start" x="180.5" y="-122" font-family="Helvetica,sans-Serif" font-size="10.00">LightCBData gpuData</text>
<text text-anchor="start" x="167.5" y="-107" font-family="Helvetica,sans-Serif" font-size="10.00">+</text>
<text text-anchor="start" x="180.5" y="-107" font-family="Helvetica,sans-Serif" font-size="10.00">LightBuffer()</text>
<text text-anchor="start" x="167.5" y="-92" font-family="Helvetica,sans-Serif" font-size="10.00">+</text>
<text text-anchor="start" x="180.5" y="-92" font-family="Helvetica,sans-Serif" font-size="10.00">LightBuffer(const</text>
<text text-anchor="start" x="180.5" y="-81" font-family="Helvetica,sans-Serif" font-size="10.00"> LightCBData &amp;data)</text>
<text text-anchor="start" x="167.5" y="-66" font-family="Helvetica,sans-Serif" font-size="10.00">+</text>
<text text-anchor="start" x="180.5" y="-66" font-family="Helvetica,sans-Serif" font-size="10.00">virtual void * GetData</text>
<text text-anchor="start" x="180.5" y="-55" font-family="Helvetica,sans-Serif" font-size="10.00">() const override</text>
<text text-anchor="start" x="167.5" y="-40" font-family="Helvetica,sans-Serif" font-size="10.00">+</text>
<text text-anchor="start" x="180.5" y="-40" font-family="Helvetica,sans-Serif" font-size="10.00">virtual uint16_t GetSize</text>
<text text-anchor="start" x="180.5" y="-29" font-family="Helvetica,sans-Serif" font-size="10.00">() const override</text>
<polygon fill="#666666" stroke="#666666" points="163.5,-132 163.5,-132 299.5,-132 299.5,-132 163.5,-132"/>
<polygon fill="#666666" stroke="#666666" points="163.5,-117 163.5,-117 178.5,-117 178.5,-117 163.5,-117"/>
<polygon fill="#666666" stroke="#666666" points="178.5,-117 178.5,-117 299.5,-117 299.5,-117 178.5,-117"/>
<polygon fill="none" stroke="#666666" points="163.5,-22 163.5,-160 299.5,-160 299.5,-22 163.5,-22"/>
</a>
</g>
</g>
<!-- Node1&#45;&gt;Node3 -->
<g id="edge2_Node000001_Node000003" class="edge">
<title>Node1&#45;&gt;Node3</title>
<g id="a_edge2_Node000001_Node000003"><a xlink:title=" ">
<path fill="none" stroke="#63b8ff" d="M285.77,-208.25C278.59,-192.87 270.75,-176.08 263.32,-160.17"/>
<polygon fill="none" stroke="#63b8ff" points="282.75,-210.05 290.15,-217.63 289.09,-207.09 282.75,-210.05"/>
</a>
</g>
</g>
<!-- Node4 -->
<g id="Node000004" class="node">
<title>Node4</title>
<g id="a_Node000004"><a xlink:href="structSleak_1_1RenderEngine_1_1MaterialBuffer.html" target="_top" xlink:title="ConstantBuffer wrapper around MaterialGPUData.">
<polygon fill="white" stroke="transparent" points="469,-160 318,-160 318,-22 469,-22 469,-160"/>
<text text-anchor="start" x="343.5" y="-148" font-family="Helvetica,sans-Serif" font-size="10.00">Sleak::RenderEngine</text>
<text text-anchor="start" x="356" y="-137" font-family="Helvetica,sans-Serif" font-size="10.00">::MaterialBuffer</text>
<text text-anchor="start" x="322.5" y="-122" font-family="Helvetica,sans-Serif" font-size="10.00">+</text>
<text text-anchor="start" x="335.5" y="-122" font-family="Helvetica,sans-Serif" font-size="10.00">MaterialGPUData gpuData</text>
<text text-anchor="start" x="322.5" y="-107" font-family="Helvetica,sans-Serif" font-size="10.00">+</text>
<text text-anchor="start" x="335.5" y="-107" font-family="Helvetica,sans-Serif" font-size="10.00">MaterialBuffer()</text>
<text text-anchor="start" x="322.5" y="-92" font-family="Helvetica,sans-Serif" font-size="10.00">+</text>
<text text-anchor="start" x="335.5" y="-92" font-family="Helvetica,sans-Serif" font-size="10.00">MaterialBuffer(const</text>
<text text-anchor="start" x="335.5" y="-81" font-family="Helvetica,sans-Serif" font-size="10.00"> MaterialGPUData &amp;data)</text>
<text text-anchor="start" x="322.5" y="-66" font-family="Helvetica,sans-Serif" font-size="10.00">+</text>
<text text-anchor="start" x="335.5" y="-66" font-family="Helvetica,sans-Serif" font-size="10.00">virtual void * GetData</text>
<text text-anchor="start" x="335.5" y="-55" font-family="Helvetica,sans-Serif" font-size="10.00">() const override</text>
<text text-anchor="start" x="322.5" y="-40" font-family="Helvetica,sans-Serif" font-size="10.00">+</text>
<text text-anchor="start" x="335.5" y="-40" font-family="Helvetica,sans-Serif" font-size="10.00">virtual uint16_t GetSize</text>
<text text-anchor="start" x="335.5" y="-29" font-family="Helvetica,sans-Serif" font-size="10.00">() const override</text>
<polygon fill="#666666" stroke="#666666" points="318.5,-132 318.5,-132 469.5,-132 469.5,-132 318.5,-132"/>
<polygon fill="#666666" stroke="#666666" points="318.5,-117 318.5,-117 333.5,-117 333.5,-117 318.5,-117"/>
<polygon fill="#666666" stroke="#666666" points="333.5,-117 333.5,-117 469.5,-117 469.5,-117 333.5,-117"/>
<polygon fill="none" stroke="#666666" points="318,-22 318,-160 469,-160 469,-22 318,-22"/>
</a>
</g>
</g>
<!-- Node1&#45;&gt;Node4 -->
<g id="edge3_Node000001_Node000004" class="edge">
<title>Node1&#45;&gt;Node4</title>
<g id="a_edge3_Node000001_Node000004"><a xlink:title=" ">
<path fill="none" stroke="#63b8ff" d="M339.23,-208.25C346.41,-192.87 354.25,-176.08 361.68,-160.17"/>
<polygon fill="none" stroke="#63b8ff" points="335.91,-207.09 334.85,-217.63 342.25,-210.05 335.91,-207.09"/>
</a>
</g>
</g>
<!-- Node5 -->
<g id="Node000005" class="node">
<title>Node5</title>
<g id="a_Node000005"><a xlink:href="structSleak_1_1RenderEngine_1_1TransformBuffer.html" target="_top" xlink:title="Per&#45;draw world&#45;view&#45;projection and world matrices.">
<polygon fill="white" stroke="transparent" points="649.5,-182 487.5,-182 487.5,0 649.5,0 649.5,-182"/>
<text text-anchor="start" x="518" y="-170" font-family="Helvetica,sans-Serif" font-size="10.00">Sleak::RenderEngine</text>
<text text-anchor="start" x="526" y="-159" font-family="Helvetica,sans-Serif" font-size="10.00">::TransformBuffer</text>
<text text-anchor="start" x="566.5" y="-144" font-family="Helvetica,sans-Serif" font-size="10.00"> </text>
<text text-anchor="start" x="491.5" y="-129" font-family="Helvetica,sans-Serif" font-size="10.00">+</text>
<text text-anchor="start" x="504.5" y="-129" font-family="Helvetica,sans-Serif" font-size="10.00">TransformBuffer(const</text>
<text text-anchor="start" x="504.5" y="-118" font-family="Helvetica,sans-Serif" font-size="10.00"> Sleak::Math::Matrix4 &amp;mvp)</text>
<text text-anchor="start" x="491.5" y="-103" font-family="Helvetica,sans-Serif" font-size="10.00">+</text>
<text text-anchor="start" x="504.5" y="-103" font-family="Helvetica,sans-Serif" font-size="10.00">TransformBuffer(const</text>
<text text-anchor="start" x="504.5" y="-92" font-family="Helvetica,sans-Serif" font-size="10.00"> Sleak::Math::Matrix4</text>
<text text-anchor="start" x="504.5" y="-81" font-family="Helvetica,sans-Serif" font-size="10.00"> &amp;world, const Sleak::Math</text>
<text text-anchor="start" x="504.5" y="-70" font-family="Helvetica,sans-Serif" font-size="10.00">::Matrix4 &amp;view, const Sleak</text>
<text text-anchor="start" x="504.5" y="-59" font-family="Helvetica,sans-Serif" font-size="10.00">::Math::Matrix4 &amp;proj)</text>
<text text-anchor="start" x="491.5" y="-44" font-family="Helvetica,sans-Serif" font-size="10.00">+</text>
<text text-anchor="start" x="504.5" y="-44" font-family="Helvetica,sans-Serif" font-size="10.00">virtual void * GetData</text>
<text text-anchor="start" x="504.5" y="-33" font-family="Helvetica,sans-Serif" font-size="10.00">() const override</text>
<text text-anchor="start" x="491.5" y="-18" font-family="Helvetica,sans-Serif" font-size="10.00">+</text>
<text text-anchor="start" x="504.5" y="-18" font-family="Helvetica,sans-Serif" font-size="10.00">virtual uint16_t GetSize</text>
<text text-anchor="start" x="504.5" y="-7" font-family="Helvetica,sans-Serif" font-size="10.00">() const override</text>
<polygon fill="#666666" stroke="#666666" points="487.5,-154 487.5,-154 649.5,-154 649.5,-154 487.5,-154"/>
<polygon fill="#666666" stroke="#666666" points="487.5,-139 487.5,-139 649.5,-139 649.5,-139 487.5,-139"/>
<polygon fill="none" stroke="#666666" points="487.5,0 487.5,-182 649.5,-182 649.5,0 487.5,0"/>
</a>
</g>
</g>
<!-- Node1&#45;&gt;Node5 -->
<g id="edge4_Node000001_Node000005" class="edge">
<title>Node1&#45;&gt;Node5</title>
<g id="a_edge4_Node000001_Node000005"><a xlink:title=" ">
<path fill="none" stroke="#63b8ff" d="M390,-232.84C418.95,-219.04 451.37,-201.61 478.5,-182 481.46,-179.86 484.4,-177.63 487.33,-175.32"/>
<polygon fill="none" stroke="#63b8ff" points="388.3,-229.77 380.73,-237.19 391.27,-236.11 388.3,-229.77"/>
</a>
</g>
</g>
</g>
</svg>

<g id="navigator" transform="translate(0 0)" fill="#404254">
  <rect fill="#f2f5e9" fill-opacity="0.5" stroke="#606060" stroke-width=".5" x="0" y="0" width="60" height="60"/>
  <use id="zoomplus" xlink:href="#zoomPlus" x="17" y="9" data-zoom="in"/>
  <use id="zoomminus" xlink:href="#zoomMin" x="42" y="9" data-zoom="out"/>
  <use id="reset" xlink:href="#resetDef" x="30" y="36" data-reset="true"/>
  <use id="arrowup" xlink:href="#arrowUp" x="0" y="0" data-pan-x="0" data-pan-y="-1"/>
  <use id="arrowright" xlink:href="#arrowRight" x="0" y="0" data-pan-x="1" data-pan-y="0"/>
  <use id="arrowdown" xlink:href="#arrowDown" x="0" y="0" data-pan-x="0" data-pan-y="1"/>
  <use id="arrowleft" xlink:href="#arrowLeft" x="0" y="0" data-pan-x="-1" data-pan-y="0"/>
</g>
<svg viewBox="0 0 15 15" width="100%" height="30px" preserveAspectRatio="xMaxYMin meet">
 <g id="arrow_out" transform="scale(0.3 0.3)">
  <a xlink:href="structSleak_1_1RenderEngine_1_1ConstantBuffer__inherit__graph_org.svg" target="_base">
   <rect id="button" ry="5" rx="5" y="6" x="6" height="38" width="38"
        fill="#f2f5e9" fill-opacity="0.5" stroke="#606060" stroke-width="1.0"/>
   <path id="arrow"
     d="M 11.500037,31.436501 C 11.940474,20.09759 22.043105,11.32322 32.158766,21.979434 L 37.068811,17.246167 C 37.068811,17.246167 37.088388,32 37.088388,32 L 22.160133,31.978069 C 22.160133,31.978069 26.997745,27.140456 26.997745,27.140456 C 18.528582,18.264221 13.291696,25.230495 11.500037,31.436501 z"
     style="fill:#404040;"/>
  </a>
 </g>
</svg>

<style type='text/css'>
<![CDATA[
[data-mouse-over-selected='false'] { opacity: 0.7; }
[data-mouse-over-selected='true']  { opacity: 1.0; }
]]>
</style>
</svg>
